<ttFont>
<head>
    <!-- Most of this table will be recalculated by the compiler -->
    <tableVersion value="1.0"/>
    <fontRevision value="3.2"/>
    <checkSumAdjustment value="0xa16121e5"/>
    <magicNumber value="0x5f0f3cf5"/>
    <flags value="00000000 00000011"/>
    <unitsPerEm value="1000"/>
    <created value="Fri Dec 22 01:46:51 2017"/>
    <modified value="Fri Dec 22 01:46:51 2017"/>
    <xMin value="-562"/>
    <yMin value="-606"/>
    <xMax value="2477"/>
    <yMax value="1108"/>
    <macStyle value="00000000 00000001"/>
    <lowestRecPPEM value="3"/>
    <fontDirectionHint value="2"/>
    <indexToLocFormat value="0"/>
    <glyphDataFormat value="0"/>
  </head>
          <CharString index="0">
            135 86 79 135 2 0 6 -1 10 hvcurveto
            -152 -16 hlineto
            -47 -26 -34 -46 -58 -20 41 48 vhcurveto
            70 40 vlineto
            151 122 74 164 144 -93 80 -136 -141 -88 -87 -123 -13 2 -13 1 -13 hvcurveto
            157 hlineto
            -1 11 0 11 12 vvcurveto
            47 25 32 45 45 25 -32 -46 -89 -85 -27 -88 vhcurveto
            -139 -192 hlineto
            -143 89 -91 151 vhcurveto
            return
          </CharString>
          <CharString index="1">
            43 -29 -50 27 -71 hhcurveto
            -133 -79 295 callgsubr
            46 30 hvcurveto
            127 callsubr
            return
          </CharString>
          <CharString index="2">
            -107 callgsubr
            65 return
          </CharString>
          <CharString index="3">
            -35 -8 -39 -43 -41 -12 33 40 vhcurveto
            31 -152 vlineto
            -1 -10 0 -11 -11 vvcurveto
            -133 77 -73 133 144 61 94 120 vhcurveto
            226 return
          </CharString>
          <CharString index="4">
            271 callgsubr
            57 36 -43 -56 -58 -35 -39 -54 -10 -12 1 3 -10 vhcurveto
            -121 vlineto
            -7 24 25 -3 25 hhcurveto
            120 86 85 147 126 -75 99 -127 -70 -52 -28 -42 -30 hvcurveto
            148 423 131 return
          </CharString>
          <CharString index="5">
            172 328 hlineto
            147 -108 92 -151 -143 -101 -90 -122 -23 vhcurveto
            171 hlineto
            43 10 33 28 50 hhcurveto
            55 33 -39 -60 2 hvcurveto
            -125 hlineto
            -167 -72 -77 -97 -100 80 -64 102 77 76 37 52 29 hvcurveto
            -190 98 rmoveto
            34 25 26 58 vhcurveto
            106 -7 hlineto
            -70 -63 -41 -58 -43 -25 22 36 vhcurveto
            endchar
          </CharString>
          <CharString index="6">
            271 vlineto
            -103 callsubr
            return
          </CharString>
          <CharString index="7">
            156 753 353 rmoveto
            211 -159 148 -200 -199 -162 -148 -211 -211 162 -149 199 199 160 149 211 vhcurveto
            -545 hmoveto
            125 72 79 114 112 73 -79 -125 -123 -73 -81 -112 -114 -72 81 123 vhcurveto
            return
          </CharString>
          <CharString index="8">
            41 callsubr
            136 83 59 38 49 31 vhcurveto
            -79 194 callgsubr
            -79 vlineto
            49 -30 -59 38 -83 hhcurveto
            -137 -109 -110 -176 hvcurveto
            418 -1 rmoveto
            -89 -57 -49 -65 -64 -58 50 89 89 58 48 64 65 57 -49 -89 vhcurveto
            return
          </CharString>
          <CharString index="9">
            -77 -34 -54 -108 vhcurveto
            -74 -202 hlineto
            6 callsubr
            return
          </CharString>
          <CharString index="10">
            22 63 35 22 27 37 35 22 -24 -34 -5 0 -5 -1 -11 hvcurveto
            116 hlineto
            1 11 1 18 12 vvcurveto
            98 -64 71 -116 return
          </CharString>
          <CharString index="11">
            133 callgsubr
            vlineto
            -106 callsubr
            return
          </CharString>
          <CharString index="12">
            7 608 279 rmoveto
            177 -126 110 -164 -163 -127 -110 -177 -177 124 -110 164 164 128 110 177 vhcurveto
            -406 hmoveto
            95 54 44 62 60 56 -44 -95 -94 -57 -45 -61 -62 -52 45 94 vhcurveto
            return
          </CharString>
          <CharString index="13">
            5 0 8 -1 9 vhcurveto
            -151 -16 callsubr
            return
          </CharString>
          <CharString index="14">
            -67 -31 49 69 hvcurveto
            199 197 -208 vlineto
            -59 -33 -50 -66 vhcurveto
            return
          </CharString>
          <CharString index="15">
            249 callsubr
            39 -9 callsubr
            -39 -56 -74 vhcurveto
            return
          </CharString>
          <CharString index="16">
            -90 callsubr
            65 59 31 -44 -61 return
          </CharString>
          <CharString index="17">
            105 callsubr
            -10 -11 79 callgsubr
            60 63 -34 callsubr
            return
          </CharString>
          <CharString index="18">
            157 -101 callsubr
            return
          </CharString>
          <CharString index="19">
            -91 callsubr
            -72 -43 -43 -64 -6 -12 1 1 -9 -13 callgsubr
            return
          </CharString>
          <CharString index="20">
            75 59 283 rmoveto
            -194 127 -96 163 162 136 96 194 vhcurveto
            419 -171 -420 vlineto
            -83 -43 -48 -81 -81 -41 48 83 vhcurveto
            420 -171 vlineto
            return
          </CharString>
          <CharString index="21">
            rmoveto
            -150 hlineto
            -31 -9 -31 -29 -47 hhcurveto
            -53 -39 37 63 61 39 38 53 50 30 -31 -31 7 hvcurveto
            150 hlineto
            105 -12 -73 81 -148 -26 callsubr
            return
          </CharString>
          <CharString index="22">
            -92 callsubr
            364 422 rmoveto
            131 return
          </CharString>
          <CharString index="23">
            -149 hlineto
            -75 -51 -52 -79 -77 -50 49 70 84 64 42 79 vhcurveto
            137 208 173 131 return
          </CharString>
          <CharString index="24">
            -78 callsubr
            49 callsubr
            vhcurveto
            return
          </CharString>
          <CharString index="25">
            -57 callgsubr
            74 87 141 hvcurveto
            47 return
          </CharString>
          <CharString index="26">
            270 callgsubr
            -156 -138 -68 -83 -109 -13 2 -14 2 -11 254 callsubr
            -2 11 -1 11 10 vvcurveto
            39 21 25 33 39 16 -31 -44 vhcurveto
            -76 -63 276 callsubr
            -64 -136 212 callsubr
            hvcurveto
            return
          </CharString>
          <CharString index="27">
            -74 -65 51 -15 callgsubr
            214 -162 rlineto
            -17 -22 -29 -11 -35 hhcurveto
            return
          </CharString>
          <CharString index="28">
            -100 -83 -46 -105 -137 121 -25 76 hvcurveto
            36 hlineto
            51 36 -18 -45 -37 -30 -24 -52 -52 -42 25 50 -2 hvcurveto
            -156 hlineto
            return
          </CharString>
          <CharString index="29">
            -39 callgsubr
            160 -158 -164 230 callsubr
            return
          </CharString>
          <CharString index="30">
            -85 -45 55 73 hvcurveto
            37 vlineto
            96 12 66 116 callsubr
            return
          </CharString>
          <CharString index="31">
            307 -74 callsubr
            return
          </CharString>
          <CharString index="32">
            314 -146 vlineto
            -59 -41 -33 -50 -60 -37 39 60 68 49 39 73 vhcurveto
            178 214 114 return
          </CharString>
          <CharString index="33">
            -7 rmoveto
            -107 callsubr
            return
          </CharString>
          <CharString index="34">
            -106 callsubr
            288 vlineto
            return
          </CharString>
          <CharString index="35">
            rmoveto
            -74 -33 52 74 hvcurveto
            191 214 -200 vlineto
            -64 -36 -53 -71 vhcurveto
            return
          </CharString>
          <CharString index="36">
            -54 callsubr
            -98 vhcurveto
            return
          </CharString>
          <CharString index="37">
            rmoveto
            235 -347 -55 122 vvcurveto
            44 31 21 41 -1 vhcurveto
            46 -1 32 -27 3 -45 rrcurveto
            185 hlineto
            134 -7 -103 76 -153 hhcurveto
            -147 -109 -74 -133 hvcurveto
            -2 -249 351 70 -130 vvcurveto
            -41 -32 -25 -50 -48 -34 26 54 -5 vhcurveto
            -182 hlineto
            return
          </CharString>
          <CharString index="38">
            rmoveto
            -155 79 -155 -79 rlineto
            -118 vlineto
            155 82 155 -82 rlineto
            return
          </CharString>
          <CharString index="39">
            -348 -164 hlineto
            -14 10 -17 7 -19 5 rrcurveto
            4 vlineto
            68 23 38 54 72 vvcurveto
            110 -82 72 -127 -131 -87 -81 -120 vhcurveto
            145 hlineto
            41 31 27 42 39 30 -27 -43 -40 -32 -30 -53 vhcurveto
            return
          </CharString>
          <CharString index="40">
            203 callgsubr
            190 callgsubr
            return
          </CharString>
          <CharString index="41">
            145 80 70 108 131 -104 44 -102 hvcurveto
            223 callgsubr
            return
          </CharString>
          <CharString index="42">
            107 541 hmoveto
            181 hlineto
            -254 702 rlineto
            -198 hlineto
            -254 -702 rlineto
            179 hlineto
            42 124 rlineto
            262 hlineto
            return
          </CharString>
          <CharString index="43">
            -92 -45 -38 -90 vhcurveto
            -26 -127 hlineto
            -181 110 -102 172 return
          </CharString>
          <CharString index="44">
            rmoveto
            -79 callgsubr
            -270 vmoveto
            -80 callsubr
            return
          </CharString>
          <CharString index="45">
            131 callsubr
            hvcurveto
            -94 callgsubr
            return
          </CharString>
          <CharString index="46">
            rmoveto
            -210 -147 -148 -210 -210 148 -147 210 185 117 121 121 36 hvcurveto
            159 -372 -126 217 vlineto
            -79 -26 -59 -45 -85 hhcurveto
            -123 -74 76 130 122 73 78 110 64 48 -25 -47 26 hvcurveto
            189 hlineto
            144 -37 -122 86 -168 hhcurveto
            return
          </CharString>
          <CharString index="47">
            -42 -26 30 44 hvcurveto
            258 134 -258 vlineto
            -44 -23 -30 -43 vhcurveto
            return
          </CharString>
          <CharString index="48">
            hhcurveto
            -131 -94 -76 -120 -8 hvcurveto
            148 hlineto
            38 10 33 25 44 hhcurveto
            61 32 -50 -57 -60 -32 -48 -61 -43 -33 24 39 -11 hvcurveto
            -148 hlineto
            -120 9 93 -75 131 hhcurveto
            return
          </CharString>
          <CharString index="49">
            170 95 77 127 32 callgsubr
            hvcurveto
            -60 callgsubr
            return
          </CharString>
          <CharString index="50">
            132 33 352 rmoveto
            -210 146 -147 207 167 126 93 152 40 vhcurveto
            -188 hlineto
            -60 -29 -53 -30 -65 hhcurveto
            -105 -72 78 311 callgsubr
            78 105 65 53 -30 -60 29 hvcurveto
            188 hlineto
            152 -40 -126 94 -167 hhcurveto
            -207 -146 -148 -210 hvcurveto
            return
          </CharString>
          <CharString index="51">
            -45 -127 45 hlineto
            65 28 -38 -41 -45 -28 -31 -48 -48 -30 34 42 hvcurveto
            -147 hlineto
            -126 94 -85 141 125 83 76 119 vhcurveto
            3 0 3 3 vvcurveto
            98 -263 return
          </CharString>
          <CharString index="52">
            42 callgsubr
            vhcurveto
            -134 194 callsubr
            vlineto
            endchar
          </CharString>
          <CharString index="53">
            -39 callsubr
            -60 -68 return
          </CharString>
          <CharString index="54">
            -155 -129 -74 -173 37 callsubr
            53 40 80 hvcurveto
            return
          </CharString>
          <CharString index="55">
            -25 28 279 rmoveto
            -177 116 -110 164 140 99 81 129 29 vhcurveto
            -182 hlineto
            -41 -15 -27 -23 -47 hhcurveto
            -61 -42 48 93 93 42 48 61 47 28 -25 -39 14 hvcurveto
            182 hlineto
            133 -29 -99 77 -140 hhcurveto
            -164 -116 -111 -176 hvcurveto
            return
          </CharString>
          <CharString index="56">
            -4 callsubr
            74 callgsubr
          </CharString>
          <CharString index="57">
            142 hlineto
            -2 11 -2 11 13 vvcurveto
            43 24 26 39 38 22 -29 -37 -86 -81 -24 -104 vhcurveto
            return
          </CharString>
          <CharString index="58" raw="1">
            690accc6 aa5f4e0b  
          </CharString>
          <CharString index="59">
            -73 -31 -52 -95 -6 vhcurveto
            55 -41 -73 34 -110 hhcurveto
            -155 -127 -80 -170 37 callsubr
            48 40 84 95 29 -57 -39 hvcurveto
            -51 vlineto
            121 callsubr
            146 263 callgsubr
            return
          </CharString>
          <CharString index="60">
            236 156 hmoveto
            188 hlineto
            91 362 88 -362 rlineto
            189 hlineto
            151 558 rlineto
            -161 hlineto
            -78 -397 -95 397 rlineto
            -181 hlineto
            -94 -399 -79 399 rlineto
            -171 hlineto
            return
          </CharString>
          <CharString index="61">
            rmoveto
            -55 -35 34 55 53 35 35 55 54 35 -35 -53 -55 -35 -34 -54 hvcurveto
            return
          </CharString>
          <CharString index="62">
            -40 callgsubr
            125 -357 return
          </CharString>
          <CharString index="63">
            rmoveto
            -77 callsubr
            340 -134 vlineto
            29 269 callgsubr
            -112 -80 -86 -118 -56 17 -48 29 -37 hvcurveto
            -27 -19 -34 -22 -55 hhcurveto
            return
          </CharString>
          <CharString index="64">
            85 51 -63 -72 -19 -4 -19 -7 -17 hvcurveto
            -212 162 rlineto
            18 24 30 10 33 hhcurveto
            return
          </CharString>
          <CharString index="65">
            -131 98 -609 157 hlineto
            endchar
          </CharString>
          <CharString index="66">
            159 callsubr
            57 2 27 52 65 hhcurveto
            57 36 -43 -56 -61 -38 -35 -52 -9 -9 1 2 -7 hvcurveto
            -123 vlineto
            -6 24 20 -2 24 hhcurveto
            119 87 83 145 127 -74 102 -128 -67 -48 -27 -43 -29 hvcurveto
            148 416 131 return
          </CharString>
          <CharString index="67">
            -144 73 -106 142 62 46 21 35 31 vhcurveto
            252 callgsubr
            return
          </CharString>
          <CharString index="68">
            -28 callgsubr
            -92 return
          </CharString>
          <CharString index="69">
            rmoveto
            241 -101 rlineto
            118 vlineto
            -241 116 rlineto
            return
          </CharString>
          <CharString index="70">
            rmoveto
            -3 208 -302 -63 89 vvcurveto
            27 22 16 40 48 29 -25 -38 5 vhcurveto
            158 hlineto
            110 -11 -80 80 -144 hhcurveto
            -146 -81 -78 -95 hvcurveto
            -205 304 65 -90 vvcurveto
            -25 -23 -20 -44 -47 -35 26 39 -4 vhcurveto
            -169 hlineto
            return
          </CharString>
          <CharString index="71">
            2 319 209 rmoveto
            -129 349 rlineto
            -191 hlineto
            227 -539 -128 -284 rlineto
            184 hlineto
            350 823 rlineto
            -185 hlineto
            return
          </CharString>
          <CharString index="72">
            hhcurveto
            -54 -99 57 hlineto
            70 43 -2 -122 73 hvcurveto
            56 -73 -25 1 -94 hhcurveto
            -51 -98 54 hlineto
            return
          </CharString>
          <CharString index="73">
            104 callgsubr
            -24 130 24 vlineto
            63 25 55 return
          </CharString>
          <CharString index="74">
            -3 24 hhcurveto
            126 100 74 133 128 -95 77 -131 69 callgsubr
            -77 callsubr
            486 131 -886 vlineto
            return
          </CharString>
          <CharString index="75">
            146 -236 vlineto
            return
          </CharString>
          <CharString index="76">
            4 callsubr
            562 172 callsubr
            -63 -51 -20 -34 -38 hvcurveto
            27 -29 -38 15 -47 hhcurveto
            -65 -47 -25 -40 -28 hvcurveto
            -253 -262 -106 callgsubr
            702 -9 -92 callsubr
            return
          </CharString>
          <CharString index="77">
            238 170 callgsubr
            131 -98 hlineto
            return
          </CharString>
          <CharString index="78">
            194 -71 callgsubr
            return
          </CharString>
          <CharString index="79">
            -80 callgsubr
            -124 5 107 -69 145 hhcurveto
            return
          </CharString>
          <CharString index="80">
            -72 515 162 -22 callsubr
            return
          </CharString>
          <CharString index="81">
            hhcurveto
            295 callsubr
            35 29 13 33 vhcurveto
            174 181 128 131 return
          </CharString>
          <CharString index="82">
            -122 72 -98 149 148 73 94 126 vhcurveto
            244 return
          </CharString>
          <CharString index="83">
            -131 20 callgsubr
            return
          </CharString>
          <CharString index="84">
            -19 vhcurveto
            -3 vlineto
            -22 -5 -23 -11 -21 -16 rrcurveto
            80 -54 -101 45 -141 34 callgsubr
            37 -8 31 -13 26 hvcurveto
            61 -18 40 return
          </CharString>
          <CharString index="85">
            -37 callsubr
            -108 8 100 -83 149 hhcurveto
            140 86 73 97 hvcurveto
            return
          </CharString>
          <CharString index="86">
            435 459 rmoveto
            -215 150 rlineto
            0 215 vlineto
            -100 -329 rmoveto
            -80 -35 52 81 hvcurveto
            87 vlineto
            212 -151 rlineto
            -38 -12 -31 -31 -54 hhcurveto
            return
          </CharString>
          <CharString index="87">
            798 323 292 -89 callgsubr
            399 236 rmoveto
            -66 -48 -26 -41 -29 hvcurveto
            148 611 251 callgsubr
            -69 -64 -15 -32 -50 hvcurveto
            53 -33 -53 30 -66 hhcurveto
            -143 -257 rmoveto
            271 callgsubr
            62 35 -49 -92 -6 vhcurveto
            1 hlineto
            -3 0 -4 -4 -45 callsubr
            -77 callgsubr
            -1462 176 callgsubr
            hlineto
            -40 callsubr
            vlineto
            return
          </CharString>
          <CharString index="88">
            59 callsubr
            -53 -12 -63 -45 -87 vvcurveto
            return
          </CharString>
          <CharString index="89">
            -46 callsubr
            313 -234 rmoveto
            136 85 79 135 hvcurveto
            18 -153 -16 vlineto
            -47 -26 -34 -46 -58 -20 41 48 vhcurveto
            70 40 vlineto
            151 122 74 164 144 -93 80 -136 -26 -24 -3 -6 -21 hvcurveto
            -904 10 callgsubr
            36 32 6 11 29 hvcurveto
            -87 31 81 -46 110 hhcurveto
            242 callsubr
            606 98 134 302 callgsubr
          </CharString>
          <CharString index="90">
            96 vlineto
            -10 -28 -27 -5 -21 hhcurveto
            -28 -16 13 20 22 18 18 49 25 hvcurveto
            return
          </CharString>
          <CharString index="91">
            -13 hlineto
            -40 -22 -31 return
          </CharString>
          <CharString index="92">
            158 hlineto
            92 119 92 -119 rlineto
            159 hlineto
            return
          </CharString>
          <CharString index="93">
            -87 -34 -53 -114 30 callgsubr
            return
          </CharString>
          <CharString index="94">
            609 97 131 return
          </CharString>
          <CharString index="95">
            22 433 474 rmoveto
            -55 -30 -33 -64 vhcurveto
            -106 174 106 hlineto
            64 30 -34 -52 hvcurveto
            -371 228 rmoveto
            -702 171 265 41 vlineto
            146 -265 rlineto
            193 hlineto
            -162 278 rlineto
            108 32 48 83 88 vvcurveto
            122 -86 99 -172 vhcurveto
            return
          </CharString>
          <CharString index="96">
            -74 -71 -28 callsubr
            return
          </CharString>
          <CharString index="97">
            rmoveto
            166 74 89 122 hvcurveto
            -135 hlineto
            -52 -31 -43 -74 -74 -30 43 52 vhcurveto
            -135 hlineto
            -122 73 -89 166 vhcurveto
            endchar
          </CharString>
          <CharString index="98">
            -52 -58 hvcurveto
            -1 vlineto
            -55 return
          </CharString>
          <CharString index="99">
            -131 814 -148 vlineto
            43 -29 -50 27 -71 hhcurveto
            -53 -44 -15 -27 -35 hvcurveto
            -178 hlineto
            251 callsubr
            -73 -171 116 callgsubr
            73 53 39 80 hvcurveto
            95 hlineto
            -3 -18 -2 -18 -20 vvcurveto
            return
          </CharString>
          <CharString index="100">
            -25 84 callgsubr
            return
          </CharString>
          <CharString index="101">
            -2 1 3 2 3 3 3 3 rlinecurve
            -152 48 callsubr
            131 return
          </CharString>
          <CharString index="102">
            -35 -26 13 32 36 33 11 33 201 callgsubr
            return
          </CharString>
          <CharString index="103">
            -35 callgsubr
            270 vmoveto
            return
          </CharString>
          <CharString index="104">
            rmoveto
            -67 -55 -46 -75 -75 55 -46 67 68 55 46 75 75 -55 46 -68 hvcurveto
            -170 vmoveto
            -26 -21 20 29 30 21 19 26 27 21 -19 -30 -29 -21 -20 -27 hvcurveto
            return
          </CharString>
          <CharString index="105">
            rmoveto
            379 -68 -19 hlineto
            174 callsubr
            -125 68 -87 103 -41 hvcurveto
            -124 -153 138 callgsubr
            -113 139 rlineto
            98 27 54 68 95 vvcurveto
            32 callgsubr
            vhcurveto
            117 callsubr
            endchar
          </CharString>
          <CharString index="106">
            -45 542 38 rmoveto
            -137 hlineto
            -29 -11 -31 -29 -50 hhcurveto
            -62 -45 45 72 73 41 51 66 43 26 -20 -18 14 hvcurveto
            -83 -93 rlineto
            139 hlineto
            82 93 rlineto
            90 -15 -91 66 -120 hhcurveto
            -14 -14 -1 -2 -13 hvcurveto
            -18 9 -11 16 19 vvcurveto
            35 29 13 33 vhcurveto
            174 181 128 131 -619 119 callgsubr
            -51 26 -40 44 -26 hvcurveto
            -58 -40 -35 -66 -85 vvcurveto
            -147 95 -99 151 134 93 73 108 10 vhcurveto
            return
          </CharString>
          <CharString index="107">
            170 callsubr
            endchar
          </CharString>
          <CharString index="108">
            -171 117 -73 143 return
          </CharString>
          <CharString index="109">
            -81 callsubr
            endchar
          </CharString>
          <CharString index="110">
            170 326 hlineto
            150 -86 88 -129 -75 -60 -33 -47 -34 vhcurveto
            74 -171 -558 171 303 vlineto
            76 42 42 65 65 42 -42 -76 vhcurveto
            return
          </CharString>
          <CharString index="111">
            609 rmoveto
            return
          </CharString>
          <CharString index="112">
            rmoveto
            -43 callsubr
            return
          </CharString>
          <CharString index="113">
            -23 callgsubr
            92 callgsubr
            return
          </CharString>
          <CharString index="114">
            136 callsubr
            3 -81 47 -58 73 -30 -121 -149 rcurveline
            -15 callsubr
            -121 148 rlineto
            65 29 35 55 71 vvcurveto
            131 -104 44 -102 vhcurveto
            191 callgsubr
          </CharString>
          <CharString index="115">
            -550 705 rmoveto
            151 43 hlineto
            72 30 85 212 214 29 -85 -72 vhcurveto
            -8 -103 -131 98 212 callgsubr
            -98 return
          </CharString>
          <CharString index="116">
            256 194 -96 callgsubr
            547 hmoveto
            289 callsubr
            35 25 50 hvcurveto
            58 113 callsubr
            -195 363 rmoveto
            -13 2 -14 2 -11 254 callsubr
            -2 11 -1 11 10 vvcurveto
            39 21 25 33 39 16 -31 -44 vhcurveto
            -76 -400 145 139 vlineto
            242 callgsubr
            198 -496 rmoveto
            142 73 87 141 hvcurveto
            47 return
          </CharString>
          <CharString index="117">
            vvcurveto
            -124 144 callsubr
            142 74 87 141 vhcurveto
            91 callgsubr
            return
          </CharString>
          <CharString index="118">
            18 165 392 rmoveto
            -70 -33 -41 -62 -83 vvcurveto
            -146 121 -82 149 149 121 82 146 83 -41 61 -71 34 vhcurveto
            55 29 39 53 75 vvcurveto
            104 -80 92 -172 -172 -81 -92 -104 -77 38 -50 56 -30 vhcurveto
            159 46 rmoveto
            -49 -37 31 53 56 35 31 51 51 35 -31 -55 -53 -37 -32 -49 hvcurveto
            -120 vmoveto
            61 42 -36 -60 -54 -38 -42 -65 -66 -39 41 55 62 44 34 61 hvcurveto
            endchar
          </CharString>
          <CharString index="119">
            -132 138 579 -136 vlineto
            -55 -42 -34 -50 -53 -40 37 53 61 44 34 74 vhcurveto
            184 210 270 callsubr
            -656 hlineto
            319 -852 rmoveto
            -67 -1 -46 42 63 vvcurveto
            19 4 17 9 14 vhcurveto
            178 -118 rlineto
            -22 -18 -27 -14 -33 hhcurveto
            -3 206 rmoveto
            49 5 38 19 23 30 rrcurveto
            -142 vlineto
            -12 -2 -12 -3 -11 vhcurveto
            -162 108 16 8 19 5 22 2 rlinecurve
            endchar
          </CharString>
          <CharString index="120">
            hhcurveto
            19 callgsubr
            return
          </CharString>
          <CharString index="121">
            rmoveto
            -96 -53 55 78 -1 136 callgsubr
            73 -62 callgsubr
            return
          </CharString>
          <CharString index="122">
            -131 509 -146 vlineto
            41 -29 -50 27 -70 hhcurveto
            -133 -79 -95 -138 -107 58 294 callgsubr
            148 175 6 5 5 6 4 6 rlinecurve
            -413 -163 -25 callgsubr
            312 213 rmoveto
            -61 -40 40 61 61 42 40 59 67 34 -48 -52 -51 -35 -51 -66 hvcurveto
            endchar
          </CharString>
          <CharString index="123">
            -34 546 702 rmoveto
            -496 -140 300 hlineto
            -300 -432 rlineto
            -130 496 140 -302 vlineto
            302 432 rlineto
            return
          </CharString>
          <CharString index="124">
            rmoveto
            -49 -38 30 58 54 39 31 48 57 25 -43 -43 1 hvcurveto
            -46 -28 -41 -55 vhcurveto
            return
          </CharString>
          <CharString index="125">
            hlineto
            -129 -109 -70 -144 -135 157 callsubr
            return
          </CharString>
          <CharString index="126">
            160 124 96 159 139 -92 83 -115 25 hvcurveto
            77 276 131 return
          </CharString>
          <CharString index="127">
            154 -13 callsubr
            -1367 -24 callsubr
            108 77 53 70 44 vhcurveto
            -4 21 22 -3 24 hhcurveto
            52 45 13 24 35 hvcurveto
            -52 34 56 -32 79 hhcurveto
            67 54 26 45 34 hvcurveto
            -112 54 249 callsubr
            151 callgsubr
            -74 vhcurveto
            return
          </CharString>
          <CharString index="128">
            31 58 vvcurveto
            290 callsubr
            vhcurveto
            41 123 -369 -123 134 hlineto
            -32 -29 -17 -40 -48 vvcurveto
            return
          </CharString>
          <CharString index="129">
            2 10 hhcurveto
            37 23 -29 -37 -83 -75 -25 -99 -2 hvcurveto
            57 -36 -58 28 -68 hhcurveto
            -97 -52 80 callgsubr
            26 55 67 42 24 -20 return
          </CharString>
          <CharString index="130">
            70 89 callsubr
            63 30 -43 -56 vhcurveto
            159 hlineto
            134 -70 99 -132 -70 -52 -28 -42 -30 vhcurveto
            148 354 131 -950 vlineto
            return
          </CharString>
          <CharString index="131">
            rmoveto
            -110 72 -58 95 95 71 58 110 110 -71 58 -95 -95 -72 -58 -110 vhcurveto
            166 67 rmoveto
            30 19 -21 -46 -46 -19 -21 -30 -30 -18 21 46 46 18 21 30 hvcurveto
            return
          </CharString>
          <CharString index="132">
            187 -92 callsubr
            return
          </CharString>
          <CharString index="133">
            7 565 533 rmoveto
            108 -9 -70 104 -157 hhcurveto
            -189 -78 -125 -250 -218 54 -156 220 157 92 100 145 152 -90 83 -127 -67 -59 -28 -47 -29 hvcurveto
            141 1 30 65 77 hhcurveto
            51 24 -26 -48 10 hvcurveto
            -79 -192 rmoveto
            64 33 -40 -61 -62 -37 -37 -58 -65 -37 38 64 66 46 32 54 hvcurveto
            endchar
          </CharString>
          <CharString index="134">
            rmoveto
            95 86 38 70 54 hvcurveto
            -68 45 76 -40 103 hhcurveto
            89 183 callsubr
            -715 -131 159 -45 vlineto
            -87 -35 -53 -114 vhcurveto
            -13 hlineto
            -11 0 -11 -1 -11 vhcurveto
            0 vlineto
            -115 -80 -63 -112 -104 -43 55 59 -7 vhcurveto
            -20 callgsubr
            return
          </CharString>
          <CharString index="135">
            39 hlineto
            53 49 -29 -63 -46 -30 -38 -57 -54 -39 34 54 -6 hvcurveto
            -147 -287 153 126 hlineto
            -33 31 50 -22 62 hhcurveto
            101 79 66 109 59 -23 42 -35 28 hvcurveto
            return
          </CharString>
          <CharString index="136">
            -17 18 41 -31 69 hhcurveto
            106 59 134 callgsubr
            return
          </CharString>
          <CharString index="137">
            -13 callsubr
            -1348 -131 792 -45 vlineto
            -71 -35 -43 -113 vhcurveto
            -274 -122 hlineto
            -39 callgsubr
            122 -158 -126 230 callsubr
            138 86 90 129 2 vhcurveto
            38 hlineto
            28 24 0 1 20 hvcurveto
            -146 21 92 -92 153 hhcurveto
            87 64 29 44 41 hvcurveto
            -155 vlineto
            return
          </CharString>
          <CharString index="138">
            -84 41 -40 54 -14 vhcurveto
            -3 vlineto
            -55 -16 -52 -50 -78 vvcurveto
            return
          </CharString>
          <CharString index="139">
            292 rmoveto
            39 callsubr
            return
          </CharString>
          <CharString index="140" raw="1">
            2e1dccc6 aa5f4e0b  
          </CharString>
          <CharString index="141">
            rmoveto
            122 hlineto
            21 3 10 10 19 hhcurveto
            20 11 -11 -18 -23 -14 -10 -25 hvcurveto
            -28 -56 34 hlineto
            24 15 -11 -23 -22 -13 -10 -18 -19 -12 9 22 -2 hvcurveto
            -133 hlineto
            -74 5 51 -48 118 hhcurveto
            96 64 39 62 42 -26 26 -48 13 hvcurveto
            3 vlineto
            42 9 26 25 42 vvcurveto
            60 -61 45 -93 -116 -50 -58 -64 -2 vhcurveto
            endchar
          </CharString>
          <CharString index="142">
            rmoveto
            -101 callgsubr
            76 216 callgsubr
            endchar
          </CharString>
          <CharString index="143">
            rmoveto
            -40 -30 26 46 45 288 callgsubr
            -54 hlineto
            -53 -25 -35 -48 vhcurveto
            return
          </CharString>
          <CharString index="144">
            116 callgsubr
            75 return
          </CharString>
          <CharString index="145">
            rmoveto
            -70 -31 52 74 hvcurveto
            191 712 78 callgsubr
            -103 -92 -55 -117 -26 hvcurveto
            -35 -13 -29 -25 -46 hhcurveto
            return
          </CharString>
          <CharString index="146">
            -93 callsubr
            256 -292 rmoveto
            -101 callsubr
            return
          </CharString>
          <CharString index="147">
            -154 hlineto
            -58 -35 -34 -55 -57 -38 37 73 vhcurveto
            346 191 -75 vlineto
            -57 -26 -25 -58 8 vhcurveto
            -141 vlineto
            175 -23 62 83 151 vvcurveto
            79 87 131 return
          </CharString>
          <CharString index="148">
            49 78 callsubr
            return
          </CharString>
          <CharString index="149">
            -91 vlineto
            -65 -15 -38 -43 -22 -50 rrcurveto
            return
          </CharString>
          <CharString index="150">
            184 580 284 callgsubr
            -848 -131 310 -164 hlineto
            -17 callgsubr
            126 -266 vlineto
            -380 -363 rlineto
            181 hlineto
            202 203 rlineto
            return
          </CharString>
          <CharString index="151">
            hhcurveto
            -58 53 callsubr
            134 return
          </CharString>
          <CharString index="152">
            -100 -84 -46 -110 -110 89 -42 81 -4 hvcurveto
            -2 23 20 0 20 hhcurveto
            60 27 -25 -39 -32 -22 -26 -48 -51 -31 28 41 -3 hvcurveto
            -141 -253 148 return
          </CharString>
          <CharString index="153">
            hhcurveto
            122 callsubr
            return
          </CharString>
          <CharString index="154">
            133 callgsubr
            hlineto
            80 callsubr
          </CharString>
          <CharString index="155">
            154 -75 callsubr
            return
          </CharString>
          <CharString index="156">
            140 86 93 131 return
          </CharString>
          <CharString index="157">
            -3 hlineto
            81 -46 -70 33 -81 hhcurveto
            -126 -103 -90 -143 -143 103 -89 127 return
          </CharString>
          <CharString index="158">
            406 292 rmoveto
            -67 -30 49 69 hvcurveto
            199 196 -208 vlineto
            -59 -33 -50 -66 vhcurveto
            -423 317 rmoveto
            168 -199 hlineto
            -121 56 -95 108 -22 vhcurveto
            -168 -198 rlineto
            169 hlineto
            183 241 2 1 2 2 2 2 rlinecurve
            -220 158 271 vlineto
            271 callgsubr
            return
          </CharString>
          <CharString index="159">
            135 -81 79 -119 319 callgsubr
            vhcurveto
            129 hlineto
            -8 25 -5 27 24 vvcurveto
            53 28 27 35 37 26 -37 -54 -117 -86 -62 -154 -127 -55 39 64 44 30 36 66 vhcurveto
            17 126 -20 hlineto
            -59 -21 32 50 hvcurveto
            64 607 131 -858 vlineto
            endchar
          </CharString>
          <CharString index="160">
            -62 callsubr
            -107 -80 -67 -109 29 callgsubr
            113 -57 return
          </CharString>
          <CharString index="161">
            20 92 731 rmoveto
            -435 165 vlineto
            34 9 28 26 48 hhcurveto
            61 33 -35 -66 -63 -28 -47 -65 -56 -29 34 38 -7 hvcurveto
            -167 hlineto
            -126 6 95 -91 164 hhcurveto
            162 90 100 154 118 -61 121 -159 -58 -50 -21 -29 -26 hvcurveto
            138 312 150 vlineto
            endchar
          </CharString>
          <CharString index="162">
            36 callgsubr
            -108 -131 98 -609 hlineto
            return
          </CharString>
          <CharString index="163">
            -84 41 -41 53 -13 vhcurveto
            -4 vlineto
            -66 -22 -43 -51 -81 vvcurveto
            return
          </CharString>
          <CharString index="164">
            -131 947 -148 vlineto
            43 -29 -50 27 -71 hhcurveto
            -48 -41 -12 -23 -33 hvcurveto
            -371 hlineto
            -95 callgsubr
            117 hlineto
            -5 -21 -2 -22 -24 vvcurveto
            -137 79 -97 127 73 53 29 46 30 vhcurveto
            return
          </CharString>
          <CharString index="165">
            -84 610 213 rmoveto
            161 vlineto
            -413 -394 rlineto
            181 hlineto
            -395 629 rmoveto
            310 -164 hlineto
            -17 callgsubr
            159 131 -627 vlineto
            return
          </CharString>
          <CharString index="166">
            -96 62 -52 62 -19 vhcurveto
            -3 vlineto
            return
          </CharString>
          <CharString index="167">
            176 callgsubr
            vlineto
            -40 callsubr
            vlineto
            endchar
          </CharString>
          <CharString index="168">
            231 callgsubr
            -56 17 -45 29 -34 hvcurveto
            -28 -19 -34 -24 -57 hhcurveto
            return
          </CharString>
          <CharString index="169">
            -154 101 -73 112 55 45 18 31 28 return
          </CharString>
          <CharString index="170">
            rmoveto
            96 47 28 81 vhcurveto
            47 181 hlineto
            -75 -61 -40 -59 -39 hvcurveto
            93 260 callsubr
            return
          </CharString>
          <CharString index="171">
            -55 hhcurveto
            -94 73 callsubr
            64 return
          </CharString>
          <CharString index="172">
            -94 callgsubr
            -107 -80 -67 -109 77 callgsubr
            return
          </CharString>
          <CharString index="173">
            hhcurveto
            8 12 0 1 14 hvcurveto
            87 callgsubr
          </CharString>
          <CharString index="174">
            88 callgsubr
            146 callgsubr
            return
          </CharString>
          <CharString index="175">
            vlineto
            -128 232 -54 27 -156 139 callgsubr
            return
          </CharString>
          <CharString index="176">
            rmoveto
            53 35 35 55 54 35 -35 -53 -55 -35 -34 -54 -55 -35 34 55 vhcurveto
            return
          </CharString>
          <CharString index="177">
            102 6 callgsubr
            return
          </CharString>
          <CharString index="178">
            65 29 46 40 hvcurveto
            -157 return
          </CharString>
          <CharString index="179">
            -28 callsubr
            145 80 70 108 131 -104 44 -102 hvcurveto
            -45 hlineto
            -32 -27 12 34 35 33 11 32 hvcurveto
            return
          </CharString>
          <CharString index="180">
            -51 -51 -63 -7 callsubr
            return
          </CharString>
          <CharString index="181">
            198 callgsubr
            241 callsubr
            -758 275 callgsubr
            -145 -64 hlineto
            -82 callsubr
            122 vlineto
            -7 -21 -4 -24 -27 174 callgsubr
            vhcurveto
            return
          </CharString>
          <CharString index="182">
            -59 39 10 rmoveto
            502 139 -270 hlineto
            116 89 143 128 160 vvcurveto
            123 -74 97 -166 -133 -115 -76 -177 -5 vhcurveto
            165 hlineto
            69 30 40 51 52 24 -34 -53 -123 -165 -127 -155 -128 vhcurveto
            endchar
          </CharString>
          <CharString index="183">
            123 -63 16 vlineto
            45 18 21 34 vhcurveto
            65 vlineto
            -95 -45 -62 -90 -36 6 -40 14 -42 hvcurveto
            return
          </CharString>
          <CharString index="184">
            -136 99 callsubr
            return
          </CharString>
          <CharString index="185">
            28 280 63 callgsubr
            return
          </CharString>
          <CharString index="186">
            55 76 -2 hvcurveto
            116 14 return
          </CharString>
          <CharString index="187">
            88 callsubr
            endchar
          </CharString>
          <CharString index="188">
            121 hlineto
            -153 21 93 -95 151 140 callgsubr
          </CharString>
          <CharString index="189">
            rmoveto
            -173 hlineto
            86 257 rlineto
            endchar
          </CharString>
          <CharString index="190">
            -107 callgsubr
            64 return
          </CharString>
          <CharString index="191">
            -80 281 100 rmoveto
            49 callsubr
            hvcurveto
            30 198 134 -352 181 callsubr
            vhcurveto
            -298 509 rmoveto
            722 131 -722 hlineto
            return
          </CharString>
          <CharString index="192">
            -96 callgsubr
            348 270 11 callgsubr
            return
          </CharString>
          <CharString index="193">
            33 8 39 43 vvcurveto
            return
          </CharString>
          <CharString index="194">
            -24 hvcurveto
            -66 callgsubr
            -121 -107 310 callsubr
            91 -107 168 159 callgsubr
            hvcurveto
            105 callsubr
            -10 -11 79 callgsubr
            60 63 104 callgsubr
            -24 130 24 vlineto
            return
          </CharString>
          <CharString index="195">
            -106 callsubr
            vlineto
            return
          </CharString>
          <CharString index="196">
            323 292 -89 callgsubr
            -340 317 rmoveto
            85 -199 hlineto
            -40 callsubr
            271 vlineto
            71 33 55 69 return
          </CharString>
          <CharString index="197">
            -139 rmoveto
            -101 callgsubr
            return
          </CharString>
          <CharString index="198">
            113 97 66 127 return
          </CharString>
          <CharString index="199">
            rmoveto
            66 497 -148 vlineto
            43 -29 -50 27 -71 hhcurveto
            -85 -63 -39 -64 -34 hvcurveto
            -189 89 callgsubr
            return
          </CharString>
          <CharString index="200">
            1 callsubr
            hvcurveto
            return
          </CharString>
          <CharString index="201">
            rmoveto
            128 hlineto
            23 2 10 13 18 hhcurveto
            15 10 -11 -17 -26 -19 -23 -37 -23 hvcurveto
            -122 -74 rlineto
            -96 309 100 -174 vlineto
            61 30 rlineto
            83 40 35 32 49 vvcurveto
            54 -45 57 -103 -105 -62 -53 -75 -4 vhcurveto
            endchar
          </CharString>
          <CharString index="202">
            -93 151 49 callsubr
            vhcurveto
            return
          </CharString>
          <CharString index="203">
            -13 callsubr
            -252 -457 hlineto
            -183 92 rlineto
            67 60 25 50 73 184 callgsubr
            48 -61 78 -51 vhcurveto
            -200 -156 rlineto
            -18 179 vlineto
            140 110 return
          </CharString>
          <CharString index="204">
            vvcurveto
            297 callgsubr
            vhcurveto
            47 129 -336 return
          </CharString>
          <CharString index="205">
            98 -244 hlineto
            -25 callsubr
            return
          </CharString>
          <CharString index="206">
            157 callsubr
            185 callgsubr
            return
          </CharString>
          <CharString index="207">
            -309 75 134 callsubr
            return
          </CharString>
          <CharString index="208">
            hhcurveto
            66 49 22 36 33 hvcurveto
            -218 return
          </CharString>
          <CharString index="209">
            -140 98 -106 167 return
          </CharString>
          <CharString index="210">
            582 126 151 callsubr
            75 151 callgsubr
            -75 vhcurveto
            endchar
          </CharString>
          <CharString index="211">
            92 -30 -81 56 -112 hhcurveto
            -131 -94 -76 -120 -8 hvcurveto
            148 hlineto
            38 10 33 25 44 hhcurveto
            61 32 -46 -52 -56 -32 -45 -61 -43 -35 24 39 -9 hvcurveto
            -148 hlineto
            -120 7 95 -76 131 hhcurveto
            return
          </CharString>
          <CharString index="212">
            137 vlineto
            -1 return
          </CharString>
          <CharString index="213">
            192 callgsubr
            320 -166 -30 15 -153 160 callgsubr
            return
          </CharString>
          <CharString index="214">
            -356 rmoveto
            -100 callgsubr
            return
          </CharString>
          <CharString index="215">
            hmoveto
            -77 callgsubr
            return
          </CharString>
          <CharString index="216">
            -150 hlineto
            -69 -46 -48 -73 -75 -49 49 70 84 64 42 79 vhcurveto
            386 hlineto
            36 39 -8 -41 -34 -28 -11 -46 hvcurveto
            -54 hlineto
            -8 -1 -8 -8 vvcurveto
            -167 103 -73 122 77 51 28 44 32 vhcurveto
            return
          </CharString>
          <CharString index="217">
            hhcurveto
            -57 -62 callsubr
            return
          </CharString>
          <CharString index="218">
            212 221 583 rmoveto
            39 1 32 35 45 hhcurveto
            49 31 -36 -40 -50 -34 -32 -36 -29 hvcurveto
            -60 28 -29 35 1 50 rrcurveto
            396 -583 rmoveto
            144 -13 callsubr
            -248 -413 hlineto
            return
          </CharString>
          <CharString index="219">
            rmoveto
            -94 -54 55 76 -2 136 callgsubr
            75 -62 callgsubr
            return
          </CharString>
          <CharString index="220">
            -55 hlineto
            -52 -24 -35 -48 vhcurveto
            return
          </CharString>
          <CharString index="221">
            4 callgsubr
            323 -50 hlineto
            -81 -35 -49 -107 vhcurveto
            -101 -221 hlineto
            -122 74 -95 145 132 76 82 126 vhcurveto
            16 -151 -21 vlineto
            -40 -22 -29 -38 -43 -18 32 43 vhcurveto
            103 return
          </CharString>
          <CharString index="222">
            133 callsubr
            77 105 vvcurveto
            74 147 238 callsubr
            return
          </CharString>
          <CharString index="223">
            71 134 vvcurveto
            98 return
          </CharString>
          <CharString index="224">
            -60 callgsubr
            116 176 162 131 -689 hlineto
            return
          </CharString>
          <CharString index="225">
            72 callgsubr
            hlineto
            231 callsubr
            return
          </CharString>
          <CharString index="226">
            -94 vlineto
            -23 callgsubr
            return
          </CharString>
          <CharString index="227">
            158 -97 callgsubr
            return
          </CharString>
          <CharString index="228">
            -123 76 -96 return
          </CharString>
          <CharString index="229">
            142 139 callsubr
            return
          </CharString>
          <CharString index="230">
            -2 hvcurveto
            116 14 45 return
          </CharString>
          <CharString index="231">
            -98 callsubr
            -85 callgsubr
            return
          </CharString>
          <CharString index="232">
            272 212 rmoveto
            -41 -31 24 41 43 35 25 47 hvcurveto
            64 -45 hlineto
            -53 -23 -35 -51 vhcurveto
            return
          </CharString>
          <CharString index="233">
            4 callgsubr
            360 -53 hlineto
            -62 -36 -30 -53 vhcurveto
            -38 -137 60 hlineto
            68 28 -47 -46 -53 -34 -37 -54 -55 -39 40 54 hvcurveto
            -150 hlineto
            -146 104 -88 148 return
          </CharString>
          <CharString index="234">
            -139 151 return
          </CharString>
          <CharString index="235">
            vvcurveto
            54 35 37 52 60 28 -44 -46 vhcurveto
            106 hlineto
            115 9 -70 74 -112 hhcurveto
            -107 -51 -65 -70 -12 hvcurveto
            -78 107 -59 15 -117 132 callsubr
            return
          </CharString>
          <CharString index="236">
            -131 95 148 callsubr
            return
          </CharString>
          <CharString index="237">
            rmoveto
            112 hlineto
            127 324 rlineto
            -175 hlineto
            return
          </CharString>
          <CharString index="238">
            -58 17 53 45 38 23 61 return
          </CharString>
          <CharString index="239">
            1 rrcurveto
            -49 -126 52 hlineto
            return
          </CharString>
          <CharString index="240">
            200 callgsubr
            104 15 57 return
          </CharString>
          <CharString index="241">
            158 callgsubr
            hlineto
            return
          </CharString>
          <CharString index="242">
            -2 136 callgsubr
            75 103 240 callsubr
            -59 -68 -99 vhcurveto
            return
          </CharString>
          <CharString index="243">
            rmoveto
            339 -74 -74 -80 callgsubr
            return
          </CharString>
          <CharString index="244">
            -133 hlineto
            -75 -48 -59 -93 -54 -41 23 48 39 27 29 60 vhcurveto
            302 callsubr
            359 131 -611 vlineto
            endchar
          </CharString>
          <CharString index="245">
            hlineto
            -5 callsubr
            return
          </CharString>
          <CharString index="246">
            74 93 callgsubr
            return
          </CharString>
          <CharString index="247">
            173 callgsubr
            vlineto
            endchar
          </CharString>
          <CharString index="248">
            79 hmoveto
            171 416 92 142 -92 5 hlineto
            59 23 20 66 -4 vhcurveto
            145 vlineto
            -170 9 -90 -72 -146 vvcurveto
            -16 -62 -142 62 vlineto
            return
          </CharString>
          <CharString index="249">
            rmoveto
            -91 -46 47 64 -14 hvcurveto
            119 17 46 101 93 vvcurveto
            74 146 -236 vlineto
            -92 -60 277 callsubr
            return
          </CharString>
          <CharString index="250">
            165 hlineto
            385 704 rlineto
            -165 hlineto
            return
          </CharString>
          <CharString index="251">
            87 -80 132 return
          </CharString>
          <CharString index="252">
            -49 callgsubr
            endchar
          </CharString>
          <CharString index="253">
            -132 132 hlineto
            -26 -33 -17 -45 -58 vvcurveto
            -144 116 -79 142 vhcurveto
            42 124 -17 hlineto
            -85 -42 45 68 78 54 41 80 hvcurveto
            return
          </CharString>
          <CharString index="254">
            209 hlineto
            -282 358 272 344 rlineto
            -201 hlineto
            -234 -308 rlineto
            308 -171 -702 171 310 vlineto
            endchar
          </CharString>
          <CharString index="255">
            -47 vlineto
            252 callsubr
            return
          </CharString>
          <CharString index="256">
            rmoveto
            60 41 41 51 52 -41 41 -60 -61 -41 -41 -52 -51 41 -41 61 hvcurveto
            return
          </CharString>
          <CharString index="257">
            229 callgsubr
            -133 return
          </CharString>
          <CharString index="258">
            rmoveto
            -44 callgsubr
            return
          </CharString>
          <CharString index="259">
            -213 rmoveto
            609 return
          </CharString>
          <CharString index="260">
            47 332 217 callsubr
            -349 317 rmoveto
            85 -191 hlineto
            return
          </CharString>
          <CharString index="261">
            -630 -230 735 rmoveto
            147 hlineto
            -131 237 -54 27 -156 274 callgsubr
            return
          </CharString>
          <CharString index="262">
            707 523 rmoveto
            -66 307 callsubr
            465 -145 -64 vlineto
            -40 -37 -7 -13 -32 hvcurveto
            49 -30 -49 30 -72 hhcurveto
            return
          </CharString>
          <CharString index="263">
            -52 -36 -30 -60 -69 vvcurveto
            -113 75 -92 128 63 49 23 40 32 vhcurveto
            -115 145 445 vlineto
            40 41 21 57 69 vvcurveto
            return
          </CharString>
          <CharString index="264">
            106 -78 119 91 callsubr
            return
          </CharString>
          <CharString index="265">
            157 268 callsubr
            return
          </CharString>
          <CharString index="266">
            313 callgsubr
            hlineto
            return
          </CharString>
          <CharString index="267">
            559 -136 vlineto
            -55 -42 -34 -50 -57 -36 37 53 61 43 34 75 vhcurveto
            183 210 107 131 -709 hlineto
            endchar
          </CharString>
          <CharString index="268">
            106 76 52 68 45 vhcurveto
            299 callsubr
            return
          </CharString>
          <CharString index="269">
            -143 -136 199 callgsubr
            66 return
          </CharString>
          <CharString index="270">
            37 -37 -55 24 -69 hhcurveto
            return
          </CharString>
          <CharString index="271">
            hlineto
            56 16 29 40 34 21 -27 -48 -2 vhcurveto
            137 hlineto
            125 6 -69 80 -130 hhcurveto
            -155 -44 -111 -106 hvcurveto
            return
          </CharString>
          <CharString index="272">
            rmoveto
            -78 vlineto
            -64 -14 -57 -33 -38 -51 -257 176 rcurveline
            0 vlineto
            return
          </CharString>
          <CharString index="273">
            -45 hlineto
            -14 callsubr
            return
          </CharString>
          <CharString index="274">
            -8 4 callgsubr
            388 -80 -41 hlineto
            -153 -105 -74 -136 -76 32 -53 46 -32 hvcurveto
            -60 -34 -36 -62 -74 vvcurveto
            return
          </CharString>
          <CharString index="275">
            252 callsubr
            97 -62 119 75 63 27 50 41 vhcurveto
            -171 return
          </CharString>
          <CharString index="276">
            -95 28 729 rmoveto
            -146 311 vlineto
            -254 -583 rlineto
            175 hlineto
            251 602 rlineto
            127 vlineto
            endchar
          </CharString>
          <CharString index="277">
            36 hlineto
            51 36 -18 -45 -37 -30 -24 -52 -52 -42 25 50 -2 hvcurveto
            -156 hlineto
            -124 5 107 -69 145 hhcurveto
            return
          </CharString>
          <CharString index="278">
            vvcurveto
            62 callsubr
            vhcurveto
            -147 return
          </CharString>
          <CharString index="279">
            -144 hlineto
            44 -34 -54 26 -68 hhcurveto
            return
          </CharString>
          <CharString index="280">
            47 129 -336 146 callgsubr
            return
          </CharString>
          <CharString index="281">
            -166 -124 -95 -174 return
          </CharString>
          <CharString index="282">
            -2 -11 -1 -12 -13 vvcurveto
            return
          </CharString>
          <CharString index="283">
            -84 -46 55 73 hvcurveto
            37 vlineto
            95 12 67 116 callsubr
            340 -135 vlineto
            30 269 callgsubr
            return
          </CharString>
          <CharString index="284">
            564 -136 vlineto
            -55 -42 -34 -50 -57 -35 37 53 61 42 34 75 vhcurveto
            184 210 110 131 return
          </CharString>
          <CharString index="285">
            -136 195 callgsubr
            hlineto
            return
          </CharString>
          <CharString index="286">
            322 166 -35 callgsubr
            return
          </CharString>
          <CharString index="287">
            rmoveto
            -94 -53 53 71 -2 hvcurveto
            108 14 54 74 102 vvcurveto
            87 145 -241 vlineto
            -92 -59 -68 -99 vhcurveto
            return
          </CharString>
          <CharString index="288">
            -160 vlineto
            -78 callsubr
            return
          </CharString>
          <CharString index="289">
            -101 -61 -50 -78 -50 25 -40 42 -25 hvcurveto
            -56 -37 -34 -61 -79 vvcurveto
            -139 95 -92 151 vhcurveto
            endchar
          </CharString>
          <CharString index="290">
            65 29 46 40 249 callgsubr
            return
          </CharString>
          <CharString index="291">
            215 callgsubr
            35 25 286 callgsubr
            return
          </CharString>
          <CharString index="292">
            129 hlineto
            -8 25 -5 27 24 vvcurveto
            53 28 27 35 37 26 -37 -54 -117 -86 -62 -154 vhcurveto
            return
          </CharString>
          <CharString index="293">
            58 290 callsubr
            hvcurveto
            41 123 -369 -123 134 hlineto
            -32 -29 -17 -40 -48 vvcurveto
            -124 return
          </CharString>
          <CharString index="294">
            -126 rmoveto
            -60 -39 38 56 56 38 41 72 31 29 3 5 27 hvcurveto
            -103 vlineto
            -50 -35 -46 -63 vhcurveto
            return
          </CharString>
          <CharString index="295">
            -5 -18 -2 -20 -21 vvcurveto
            -11 1 -15 2 -13 vhcurveto
            142 hlineto
            -3 11 -2 11 13 vvcurveto
            43 26 26 return
          </CharString>
          <CharString index="296">
            -91 callgsubr
            352 vlineto
            return
          </CharString>
          <CharString index="297">
            154 rmoveto
            -127 -55 39 64 44 30 36 66 hvcurveto
            17 126 -20 hlineto
            -59 -21 32 50 hvcurveto
            64 return
          </CharString>
          <CharString index="298">
            rmoveto
            74 callgsubr
          </CharString>
          <CharString index="299">
            213 callsubr
            -59 -68 -100 vhcurveto
            return
          </CharString>
          <CharString index="300" raw="1">
            fbc0f724 1d0b  
          </CharString>
          <CharString index="301">
            153 609 return
          </CharString>
          <CharString index="302">
            1020 214 callgsubr
            167 -87 hlineto
            1 -8 -9 0 -9 hhcurveto
            -66 -47 -24 -39 -28 hvcurveto
            return
          </CharString>
          <CharString index="303">
            -25 callsubr
            134 -609 144 callgsubr
            return
          </CharString>
          <CharString index="304">
            -130 hlineto
            -64 -35 -53 -70 -75 -34 52 74 vhcurveto
            191 344 131 -586 vlineto
            endchar
          </CharString>
          <CharString index="305">
            87 74 42 74 34 hvcurveto
            5 hlineto
            return
          </CharString>
          <CharString index="306">
            hhcurveto
            -66 -47 -27 -41 -28 hvcurveto
            return
          </CharString>
          <CharString index="307">
            -15 -15 -1 -2 -14 return
          </CharString>
          <CharString index="308">
            -133 rmoveto
            142 return
          </CharString>
          <CharString index="309">
            222 callgsubr
            vlineto
            return
          </CharString>
          <CharString index="310">
            256 214 rmoveto
            -41 -30 27 42 44 34 26 47 hvcurveto
            65 -50 hlineto
            -52 -24 -37 -51 vhcurveto
            return
          </CharString>
          <CharString index="311">
            223 callgsubr
            -599 hlineto
            return
          </CharString>
          <CharString index="312">
            90 callgsubr
            -369 return
          </CharString>
          <CharString index="313">
            rmoveto
            -49 -37 30 58 54 38 31 48 58 24 306 callsubr
          </CharString>
          <CharString index="314">
            rmoveto
            160 609 97 322 callsubr
          </CharString>
          <CharString index="315">
            64 29 45 41 return
          </CharString>
          <CharString index="316">
            -112 -268 rlineto
            175 hlineto
            52 268 rlineto
            return
          </CharString>
          <CharString index="317">
            353 -76 hlineto
            282 callsubr
            return
          </CharString>
          <CharString index="318">
            99 hlineto
            1 -340 rlineto
            -148 84 -102 170 return
          </CharString>
          <CharString index="319">
            -123 88 -80 132 return
          </CharString>
          <CharString index="320">
            -32 callsubr
            -92 return
          </CharString>
          <CharString index="321">
            -23 -22 -3 -6 -20 return
          </CharString>
          <CharString index="322">
            558 -171 return
          </CharString>
          <CharString index="323">
            17 244 rlineto
            -171 hlineto
            17 -244 -208 13 rlineto
            -130 vlineto
            208 13 return
          </CharString>
          <CharString index="324">
            292 -72 callsubr
            return
          </CharString>
          <CharString index="325">
            -51 -34 -30 -58 -68 vvcurveto
            -108 71 -89 122 58 49 20 40 31 vhcurveto
            -119 return
          </CharString>
          <CharString index="326">
            182 36 callsubr
            return
          </CharString>
          <CharString index="327">
            rmoveto
            -50 -35 33 48 48 35 34 50 48 310 callgsubr
            -33 -48 hvcurveto
            endchar
          </CharString>
          <CharString index="328">
            126 -365 return
          </CharString>
          <CharString index="329">
            84 rmoveto
            -49 callgsubr
            return
          </CharString>
          <CharString index="330">
            -24 callgsubr
            292 -20 rmoveto
            return
          </CharString>
          <CharString index="331">
            95 callsubr
            30 115 299 callgsubr
            return
          </CharString>
          <CharString index="332">
            106 -42 104 43 52 8 13 31 vhcurveto
            116 vlineto
            -5 -16 -43 -11 -43 hhcurveto
            -40 return
          </CharString>
          <CharString index="333">
            122 vlineto
            -5 -17 -32 -8 -34 hhcurveto
            -50 -44 18 53 41 27 32 52 hvcurveto
            45 return
          </CharString>
          <CharString index="334">
            64 hhcurveto
            245 callsubr
            return
          </CharString>
          <CharString index="335">
            vlineto
            -1 -11 -1 -11 -11 vvcurveto
            -138 83 -103 return
          </CharString>
          <CharString index="336">
            -31 -42 -44 -20 34 43 vhcurveto
            return
          </CharString>
          <CharString index="337">
            vlineto
            -131 313 callsubr
            return
          </CharString>
          <CharString index="338">
            -155 82 -115 159 return
          </CharString>
          <CharString index="339">
            -131 243 -76 return
          </CharString>
          <CharString index="340">
            -49 -34 23 48 41 31 26 49 hvcurveto
            10 123 -11 hlineto
            -50 -35 22 43 return
          </CharString>
          <CharString index="341">
            hhcurveto
            -36 -34 -4 -7 -30 hvcurveto
            -24 10 -14 16 22 vvcurveto
            33 27 12 32 vhcurveto
            return
          </CharString>
          <CharString index="342">
            rmoveto
            -60 -40 40 61 61 43 40 58 67 34 -48 -52 -51 -36 -51 -66 hvcurveto
            return
          </CharString>
          <CharString index="343">
            rmoveto
            -42 -26 31 43 hvcurveto
            175 134 -175 vlineto
            -43 -23 -31 -43 vhcurveto
            return
          </CharString>
          <CharString index="344">
            rmoveto
            -69 -48 45 68 66 49 46 68 75 40 -53 -59 -58 -40 -55 -75 hvcurveto
            return
          </CharString>
          <CharString index="345">
            -236 266 callsubr
            return
          </CharString>
          <CharString index="346">
            hlineto
            -100 -59 -48 -74 -56 31 -42 return
          </CharString>
          <CharString index="347">
            vvcurveto
            80 213 callsubr
            return
          </CharString>
          <CharString index="348">
            312 callgsubr
            -22 vhcurveto
            return
          </CharString>
          <CharString index="349">
            309 7 rmoveto
            159 return
          </CharString>
          <CharString index="350">
            vlineto
            -70 callgsubr
            -78 119 113 97 return
          </CharString>
          <CharString index="351">
            rmoveto
            29 callsubr
            return
          </CharString>
          <CharString index="352">
            123 callgsubr
            hlineto
            return
          </CharString>
          <CharString index="353">
            255 callgsubr
            endchar
          </CharString>
          <CharString index="354">
            226 -253 vlineto
            -82 -62 -52 -79 vhcurveto
            return
          </CharString>
          <CharString index="355">
            rmoveto
            129 352 -189 -99 60 hlineto
            return
          </CharString>
          <CharString index="356">
            151 callsubr
            74 return
          </CharString>
          <CharString index="357">
            50 49 34 -35 -47 return
          </CharString>
          <CharString index="358">
            -155 -129 return
          </CharString>
          <CharString index="359">
            31 callsubr
            -121 return
          </CharString>
          <CharString index="360">
            477 hmoveto
            144 327 122 hlineto
            30 30 5 9 27 hvcurveto
            return
          </CharString>
          <CharString index="361">
            vhcurveto
            157 hlineto
            return
          </CharString>
          <CharString index="362">
            -222 rlineto
            -68 195 -62 129 62 40 73 vlineto
            -241 return
          </CharString>
          <CharString index="363">
            120 185 106 -50 71 -78 26 hvcurveto
            81 188 131 return
          </CharString>
          <CharString index="364">
            hlineto
            11 30 5 34 36 vvcurveto
            123 -58 75 -78 29 vhcurveto
            94 return
          </CharString>
          <CharString index="365">
            -143 vlineto
            43 -34 -54 26 -67 hhcurveto
            return
          </CharString>
          <CharString index="366">
            113 96 66 127 42 -11 34 return
          </CharString>
          <CharString index="367">
            -171 -558 171 vlineto
            return
          </CharString>
          <CharString index="368">
            300 callsubr
            -43 return
          </CharString>
          <CharString index="369">
            hlineto
            -67 -23 32 50 hvcurveto
            40 return
          </CharString>
          <CharString index="370" raw="1">
            28f7371b e3cca80b  
          </CharString>
          <CharString index="371">
            -288 -105 -118 -159 return
          </CharString>
          <CharString index="372">
            -24 -23 -3 -6 -21 hvcurveto
            return
          </CharString>
          <CharString index="373">
            vlineto
            -92 -60 -68 -99 vhcurveto
            return
          </CharString>
          <CharString index="374">
            134 128 callgsubr
            return
          </CharString>
          <CharString index="375">
            609 99 131 return
          </CharString>
          <CharString index="376">
            62 hmoveto
            171 return
          </CharString>
          <CharString index="377">
            111 131 return
          </CharString>
          <CharString index="378">
            -58 -1 -47 31 58 vvcurveto
            290 callsubr
            vhcurveto
            41 123 return
          </CharString>
          <CharString index="379">
            175 callsubr
            59 callsubr
            return
          </CharString>
          <CharString index="380">
            rmoveto
            -167 156 279 -45 hlineto
            -72 -31 -39 -81 vhcurveto
            return
          </CharString>
          <CharString index="381">
            rmoveto
            124 -19 vlineto
            -84 -41 46 71 75 53 40 80 hvcurveto
            return
          </CharString>
          <CharString index="382">
            -121 -269 return
          </CharString>
          <CharString index="383">
            vlineto
            -124 -102 return
          </CharString>
          <CharString index="384">
            -68 -100 306 callgsubr
            return
          </CharString>
          <CharString index="385">
            609 163 212 callgsubr
            return
          </CharString>
          <CharString index="386">
            714 -72 callgsubr
            return
          </CharString>
          <CharString index="387">
            hlineto
            -6 -21 -4 -23 -26 vvcurveto
            -122 88 -81 132 return
          </CharString>
          <CharString index="388">
            162 callgsubr
            25 return
          </CharString>
          <CharString index="389">
            -176 -3 -107 -100 -154 vvcurveto
            return
          </CharString>
          <CharString index="390">
            hmoveto
            120 callgsubr
            return
          </CharString>
          <CharString index="391">
            hlineto
            207 208 rlineto
            -119 return
          </CharString>
          <CharString index="392">
            415 hmoveto
            159 callsubr
            return
          </CharString>
          <CharString index="393">
            141 74 87 141 hvcurveto
            47 return
          </CharString>
          <CharString index="394">
            -53 53 72 -2 hvcurveto
            return
          </CharString>
          <CharString index="395">
            140 -102 182 return
          </CharString>
          <CharString index="396">
            -40 215 callgsubr
            return
          </CharString>
          <CharString index="397">
            54 41 34 55 return
          </CharString>
          <CharString index="398">
            hlineto
            32 148 rlineto
            -160 hlineto
            -32 -148 rlineto
            return
          </CharString>
          <CharString index="399">
            rmoveto
            296 -66 hlineto
            -77 -34 -54 -108 vhcurveto
            -74 return
          </CharString>
          <CharString index="400">
            374 -80 -38 hlineto
            -153 -113 -83 -154 return
          </CharString>
          <CharString index="401">
            303 callsubr
            72 return
          </CharString>
          <CharString index="402">
            200 callsubr
            hvcurveto
            -17 9 -10 15 19 vvcurveto
            return
          </CharString>
          <CharString index="403">
            74 63 27 50 38 vhcurveto
            -160 144 callgsubr
            return
          </CharString>
          <CharString index="404">
            303 vlineto
            73 42 40 65 65 42 -40 -73 vhcurveto
            return
          </CharString>
          <CharString index="405">
            171 740 -171 return
          </CharString>
          <CharString index="406">
            -1 10 10 -1 11 hhcurveto
            return
          </CharString>
          <CharString index="407">
            323 callsubr
            57 33 return
          </CharString>
          <CharString index="408">
            111 65 40 61 39 return
          </CharString>
          <CharString index="409">
            52 126 -39 262 callsubr
            return
          </CharString>
          <CharString index="410">
            30 314 callgsubr
            return
          </CharString>
          <CharString index="411">
            -368 244 rlineto
            368 131 -605 return
          </CharString>
          <CharString index="412">
            -45 vlineto
            -87 -34 -53 -114 vhcurveto
            -10 hlineto
            -2 return
          </CharString>
          <CharString index="413">
            -43 -43 1 hvcurveto
            -46 -28 -41 -55 vhcurveto
            endchar
          </CharString>
          <CharString index="414">
            -47 -25 -40 -28 hvcurveto
            151 return
          </CharString>
          <CharString index="415">
            hhcurveto
            -121 -107 -77 -164 return
          </CharString>
          <CharString index="416">
            -131 274 -78 return
          </CharString>
          <CharString index="417">
            -77 -164 -146 return
          </CharString>
          <CharString index="418">
            hvcurveto
            58 -55 hlineto
            -52 return
          </CharString>
          <CharString index="419">
            hhcurveto
            88 64 29 return
          </CharString>
          <CharString index="420">
            78 -93 151 return
          </CharString>
          <CharString index="421">
            rmoveto
            -51 -34 33 48 48 35 34 50 48 return
          </CharString>
          <CharString index="422">
            -111 -51 60 80 96 74 50 95 vhcurveto
            return
          </CharString>
          <CharString index="423">
            hhcurveto
            112 97 66 127 42 -11 34 return
          </CharString>
          <CharString index="424">
            -78 vlineto
            -113 -25 -91 -83 -138 vvcurveto
            return
          </CharString>
          <CharString index="425">
            152 callgsubr
            vlineto
            return
          </CharString>
          <CharString index="426">
            238 109 callgsubr
            -102 vlineto
            return
          </CharString>
          <CharString index="427">
            rmoveto
            700 131 -700 hlineto
            endchar
          </CharString>
          <CharString index="428">
            rmoveto
            603 131 -603 hlineto
            endchar
          </CharString>
          <CharString index="429">
            131 302 callgsubr
          </CharString>
          <CharString index="430">
            59 27 50 64 return
          </CharString>
        <CharString name=".notdef">
          -130 0 vmoveto
          500 700 -500 hlineto
          250 -305 rmoveto
          -170 255 rlineto
          340 hlineto
          -140 -300 rmoveto
          170 255 rlineto
          -510 vlineto
          -370 -45 rmoveto
          170 255 170 -255 rlineto
          -370 555 rmoveto
          170 -255 -170 -255 rlineto
          endchar
        </CharString>
        <CharString name="A">
          -65 callsubr
          -44 132 82 callsubr
        </CharString>
        <CharString name="AE">
          325 482 575 97 callgsubr
        </CharString>
        <CharString name="Aacute">
          -65 callsubr
          -255 736 -72 callgsubr
          -30 -720 82 callsubr
        </CharString>
        <CharString name="Abreve">
          -65 callsubr
          41 793 -83 callgsubr
          -85 -661 82 callsubr
        </CharString>
        <CharString name="Acircumflex">
          -65 callsubr
          25 736 -69 callsubr
          -69 -486 82 callsubr
        </CharString>
        <CharString name="Adieresis">
          -65 callsubr
          -231 642 rmoveto
          -102 callgsubr
          200 hmoveto
          -102 callgsubr
          -13 -510 82 callsubr
        </CharString>
        <CharString name="Agrave">
          -65 callsubr
          -255 719 -38 callsubr
          211 -720 82 callsubr
        </CharString>
        <CharString name="Amacron">
          -65 callsubr
          -330 650 71 callgsubr
          286 -636 82 callsubr
        </CharString>
        <CharString name="Aogonek">
          107 270 702 rmoveto
          -254 -702 rlineto
          179 hlineto
          42 124 rlineto
          262 hlineto
          40 -118 rlineto
          -42 -33 -14 -34 -39 vvcurveto
          -80 65 -37 82 37 33 6 9 29 vhcurveto
          96 vlineto
          -10 -29 -25 -5 -21 hhcurveto
          -29 -16 13 22 20 13 20 53 24 hvcurveto
          47 22 -254 702 rlineto
          -13 -446 82 callsubr
        </CharString>
        <CharString name="Aring">
          -65 callsubr
          -130 693 rmoveto
          -26 -21 20 29 30 21 19 26 27 21 -19 -30 -29 -21 -20 -27 hvcurveto
          170 vmoveto
          -67 -55 -46 -75 -75 55 -46 67 68 55 46 75 75 -55 46 -68 hvcurveto
          86 -731 82 callsubr
        </CharString>
        <CharString name="Atilde">
          -65 callsubr
          -330 627 -99 callgsubr
          286 -495 82 callsubr
        </CharString>
        <CharString name="B">
          29 449 214 rmoveto
          -50 -33 -26 -57 vhcurveto
          -126 155 124 hlineto
          57 35 -29 -50 hvcurveto
          -17 277 rmoveto
          -48 -31 -25 -56 vhcurveto
          -112 147 112 hlineto
          56 31 -26 -48 hvcurveto
          190 -300 rmoveto
          80 -53 72 -82 17 vhcurveto
          68 20 51 55 85 vvcurveto
          111 -85 71 -143 vhcurveto
          -316 -702 327 hlineto
          148 85 75 116 hvcurveto
          endchar
        </CharString>
        <CharString name="C">
          -57 callsubr
          endchar
        </CharString>
        <CharString name="CR">
          -418 endchar
        </CharString>
        <CharString name="Cacute">
          -57 callsubr
          226 512 -72 callgsubr
          endchar
        </CharString>
        <CharString name="Ccaron">
          -57 callsubr
          351 504 -68 callgsubr
        </CharString>
        <CharString name="Ccedilla">
          132 33 352 rmoveto
          -193 123 -140 181 -21 vhcurveto
          -124 71 vlineto
          -5 callgsubr
          39 vlineto
          140 18 103 89 36 135 rrcurveto
          -188 hlineto
          -60 -29 -53 -30 -65 hhcurveto
          -105 -72 78 311 callgsubr
          78 105 65 53 -30 -60 29 hvcurveto
          188 hlineto
          152 -40 -126 94 -167 hhcurveto
          -207 -146 -148 -210 hvcurveto
          endchar
        </CharString>
        <CharString name="Cdotaccent">
          -57 callsubr
          350 418 rmoveto
          -102 callgsubr
          endchar
        </CharString>
        <CharString name="D">
          96 callgsubr
          endchar
        </CharString>
        <CharString name="Dcaron">
          96 callgsubr
          43 704 -68 callgsubr
        </CharString>
        <CharString name="Dcroat">
          60 callgsubr
        </CharString>
        <CharString name="E">
          -69 callgsubr
          endchar
        </CharString>
        <CharString name="Eacute">
          -69 callgsubr
          -344 295 -72 callgsubr
          endchar
        </CharString>
        <CharString name="Ebreve">
          -69 callgsubr
          -49 352 -83 callgsubr
          endchar
        </CharString>
        <CharString name="Ecaron">
          -69 callgsubr
          -220 287 -68 callgsubr
        </CharString>
        <CharString name="Ecircumflex">
          -69 callgsubr
          -65 295 -69 callsubr
          endchar
        </CharString>
        <CharString name="Edieresis">
          -69 callgsubr
          -320 201 rmoveto
          -102 callgsubr
          200 hmoveto
          -102 callgsubr
          endchar
        </CharString>
        <CharString name="Edotaccent">
          -69 callgsubr
          -221 201 rmoveto
          -102 callgsubr
          endchar
        </CharString>
        <CharString name="Egrave">
          -69 callgsubr
          -344 278 -38 callsubr
          endchar
        </CharString>
        <CharString name="Emacron">
          -69 callgsubr
          -419 209 71 callgsubr
          endchar
        </CharString>
        <CharString name="Eogonek">
          -89 492 702 rmoveto
          -430 -702 246 hlineto
          -41 -33 -14 -33 -37 -9 callgsubr
          rlineto
          137 -259 154 229 132 -229 142 259 vlineto
          endchar
        </CharString>
        <CharString name="Eth">
          60 callgsubr
        </CharString>
        <CharString name="Euro">
          166 82 352 rmoveto
          -9 0 -9 1 -9 vhcurveto
          -63 -89 78 hlineto
          -146 43 126 -95 167 hhcurveto
          167 126 93 152 40 hvcurveto
          -188 hlineto
          -58 -29 -53 -31 -65 hhcurveto
          -66 -53 31 54 -30 hvcurveto
          169 89 -195 hlineto
          -1 9 0 9 9 vvcurveto
          10 0 10 1 9 vhcurveto
          195 90 -167 hlineto
          51 30 52 30 65 hhcurveto
          65 53 -30 -58 29 hvcurveto
          188 hlineto
          152 -40 -126 94 -167 hhcurveto
          -166 -125 -94 -145 -44 hvcurveto
          -79 -90 63 hlineto
          -1 -9 0 -10 -10 vvcurveto
          endchar
        </CharString>
        <CharString name="F">
          -83 269 callsubr
          284 214 133 -214 148 286 137 -457 hlineto
          endchar
        </CharString>
        <CharString name="G">
          132 390 710 -61 callsubr
          endchar
        </CharString>
        <CharString name="Gbreve">
          132 390 710 -61 callsubr
          162 207 -83 callgsubr
          endchar
        </CharString>
        <CharString name="Gdotaccent">
          132 390 710 -61 callsubr
          -10 56 rmoveto
          -102 callgsubr
          endchar
        </CharString>
        <CharString name="H">
          101 499 hmoveto
          171 702 -171 -275 -266 275 -171 -702 171 289 266 hlineto
          endchar
        </CharString>
        <CharString name="I">
          62 callgsubr
          endchar
        </CharString>
        <CharString name="Iacute">
          62 callgsubr
          -39 158 -72 callgsubr
          endchar
        </CharString>
        <CharString name="Icircumflex">
          62 callgsubr
          241 158 -69 callsubr
          endchar
        </CharString>
        <CharString name="Idieresis">
          62 callgsubr
          -15 64 rmoveto
          -102 callgsubr
          200 hmoveto
          -102 callgsubr
          endchar
        </CharString>
        <CharString name="Idotaccent">
          62 callgsubr
          85 64 rmoveto
          -102 callgsubr
          endchar
        </CharString>
        <CharString name="Igrave">
          62 callgsubr
          -39 141 -38 callsubr
          endchar
        </CharString>
        <CharString name="Imacron">
          62 callgsubr
          -114 72 71 callgsubr
          endchar
        </CharString>
        <CharString name="Iogonek">
          -335 240 -202 rmoveto
          51 callgsubr
          rlineto
          702 -171 -692 245 callgsubr
          endchar
        </CharString>
        <CharString name="Itilde">
          62 callgsubr
          -114 49 -99 callgsubr
          endchar
        </CharString>
        <CharString name="J">
          -52 331 224 rmoveto
          -52 -24 -26 -41 -44 -26 29 60 vhcurveto
          -170 hlineto
          -158 101 -84 144 139 92 80 151 vhcurveto
          478 -171 vlineto
          endchar
        </CharString>
        <CharString name="K">
          67 469 hmoveto
          147 callsubr
        </CharString>
        <CharString name="L">
          -153 62 702 rmoveto
          143 callgsubr
          endchar
        </CharString>
        <CharString name="Lacute">
          -153 62 702 rmoveto
          143 callgsubr
          -131 158 -72 callgsubr
          endchar
        </CharString>
        <CharString name="Lcaron">
          -107 335 702 rmoveto
          -78 callgsubr
          -404 hmoveto
          143 callgsubr
          endchar
        </CharString>
        <CharString name="Ldot">
          -153 62 702 rmoveto
          143 callgsubr
          -8 64 rmoveto
          -102 callgsubr
          endchar
        </CharString>
        <CharString name="Lslash">
          -145 75 702 rmoveto
          -286 vlineto
          -65 -19 rlineto
          -144 vlineto
          65 19 rlineto
          -272 395 130 -224 193 vlineto
          83 25 rlineto
          144 vlineto
          -83 -25 rlineto
          235 vlineto
          endchar
        </CharString>
        <CharString name="M">
          288 269 callsubr
          422 hlineto
          158 -422 rlineto
          138 hlineto
          157 421 rlineto
          -421 171 702 -201 vlineto
          -195 -486 -197 486 rlineto
          -202 hlineto
          endchar
        </CharString>
        <CharString name="N">
          122 519 702 2 callgsubr
          endchar
        </CharString>
        <CharString name="NULL">
          -630 endchar
        </CharString>
        <CharString name="Nacute">
          122 519 702 2 callgsubr
          -439 158 -72 callgsubr
          endchar
        </CharString>
        <CharString name="Ncaron">
          122 519 702 2 callgsubr
          -314 150 -68 callgsubr
        </CharString>
        <CharString name="Ntilde">
          122 519 702 2 callgsubr
          -514 49 -99 callgsubr
          endchar
        </CharString>
        <CharString name="O">
          -100 callsubr
          endchar
        </CharString>
        <CharString name="OE">
          433 1015 567 rmoveto
          135 -431 -70 vlineto
          54 -51 -72 26 -81 hhcurveto
          -194 -153 -148 -212 -213 152 -149 195 hvcurveto
          81 2 72 25 51 55 rrcurveto
          -72 431 135 -260 156 230 130 -230 146 vlineto
          -361 -12 rmoveto
          112 73 -79 -124 -124 -73 -81 -112 -114 -72 81 311 callgsubr
          79 114 hvcurveto
          endchar
        </CharString>
        <CharString name="Oacute">
          -100 callsubr
          61 507 -72 callgsubr
          endchar
        </CharString>
        <CharString name="Ocircumflex">
          -100 callsubr
          340 507 -69 callsubr
          endchar
        </CharString>
        <CharString name="Odieresis">
          -100 callsubr
          85 413 rmoveto
          -102 callgsubr
          200 hmoveto
          -102 callgsubr
          endchar
        </CharString>
        <CharString name="Ograve">
          -100 callsubr
          61 490 -38 callsubr
          endchar
        </CharString>
        <CharString name="Ohungarumlaut">
          -100 callsubr
          99 603 14 callgsubr
        </CharString>
        <CharString name="Omacron">
          -100 callsubr
          -14 421 71 callgsubr
          endchar
        </CharString>
        <CharString name="Oslash">
          156 752 353 rmoveto
          96 -33 83 -55 62 vhcurveto
          100 110 rlineto
          -104 hlineto
          -53 -58 rlineto
          42 -60 -73 24 -81 hhcurveto
          -199 -162 -148 -211 -96 34 -84 56 -62 hvcurveto
          -100 -110 rlineto
          104 hlineto
          53 59 rlineto
          -43 60 74 -24 80 hhcurveto
          199 160 149 211 hvcurveto
          -545 hmoveto
          125 72 79 114 41 36 -11 -19 29 vhcurveto
          -264 -291 rlineto
          -18 32 -10 40 45 vvcurveto
          186 -204 rmoveto
          -41 -36 11 19 -29 hvcurveto
          264 290 rlineto
          17 -31 10 -40 -45 vvcurveto
          -123 -73 -81 -112 vhcurveto
          endchar
        </CharString>
        <CharString name="Otilde">
          -100 callsubr
          -15 398 -99 callgsubr
          endchar
        </CharString>
        <CharString name="P">
          -6 233 388 rmoveto
          176 93 vlineto
          68 29 -34 -54 -54 -29 -34 -68 hvcurveto
          271 88 rmoveto
          129 -86 97 -172 vhcurveto
          -277 -702 171 252 106 hlineto
          179 79 108 116 hvcurveto
          endchar
        </CharString>
        <CharString name="Q">
          158 208 353 rmoveto
          125 72 79 114 112 73 -79 -125 -123 -73 -81 -112 -114 -72 81 123 vhcurveto
          545 hmoveto
          211 -159 148 -200 -199 -162 -148 -211 -211 162 -149 199 27 26 3 5 25 vhcurveto
          90 -121 rlineto
          207 hlineto
          -154 185 rlineto
          84 64 54 101 123 vvcurveto
          endchar
        </CharString>
        <CharString name="R">
          -12 callsubr
          endchar
        </CharString>
        <CharString name="Racute">
          -12 callsubr
          -153 158 -72 callgsubr
          endchar
        </CharString>
        <CharString name="Rcaron">
          -12 callsubr
          -28 150 -68 callgsubr
        </CharString>
        <CharString name="S">
          -15 572 209 -70 callsubr
          -142 5 118 -75 151 hhcurveto
          164 92 98 118 hvcurveto
          endchar
        </CharString>
        <CharString name="Sacute">
          -15 572 209 -70 callsubr
          -142 5 118 -75 151 hhcurveto
          164 92 98 118 hvcurveto
          -390 655 -72 callgsubr
          endchar
        </CharString>
        <CharString name="Scaron">
          -15 572 209 -70 callsubr
          -142 5 118 -75 151 hhcurveto
          164 92 98 118 hvcurveto
          -266 647 -68 callgsubr
        </CharString>
        <CharString name="T">
          -39 24 565 166 callgsubr
          endchar
        </CharString>
        <CharString name="Tcaron">
          -39 24 565 166 callgsubr
          269 150 -68 callgsubr
        </CharString>
        <CharString name="Thorn">
          -6 233 262 rmoveto
          180 93 vlineto
          68 29 -36 -54 -54 -29 -36 -68 hvcurveto
          271 90 rmoveto
          125 -86 95 -172 vhcurveto
          -108 130 -169 -702 171 133 106 hlineto
          179 79 105 114 hvcurveto
          endchar
        </CharString>
        <CharString name="U">
          -87 callsubr
          endchar
        </CharString>
        <CharString name="Uacute">
          -87 callsubr
          169 158 -72 callgsubr
          endchar
        </CharString>
        <CharString name="Ubreve">
          -87 callsubr
          465 215 -83 callgsubr
          endchar
        </CharString>
        <CharString name="Ucircumflex">
          -87 callsubr
          449 158 -69 callsubr
          endchar
        </CharString>
        <CharString name="Udieresis">
          -87 callsubr
          193 64 rmoveto
          -102 callgsubr
          200 hmoveto
          -102 callgsubr
          endchar
        </CharString>
        <CharString name="Ugrave">
          -87 callsubr
          169 141 -38 callsubr
          endchar
        </CharString>
        <CharString name="Uhungarumlaut">
          -87 callsubr
          207 254 14 callgsubr
        </CharString>
        <CharString name="Umacron">
          -87 callsubr
          94 72 71 callgsubr
          endchar
        </CharString>
        <CharString name="Uogonek">
          75 59 283 rmoveto
          -154 81 -93 115 -31 vhcurveto
          -44 -34 -15 -34 -38 -9 callgsubr
          rlineto
          1 vlineto
          121 28 91 94 158 vvcurveto
          419 -171 -420 vlineto
          -83 -43 -48 -81 -81 -41 48 83 vhcurveto
          420 -171 vlineto
          endchar
        </CharString>
        <CharString name="Uring">
          -87 callsubr
          294 285 -3 callsubr
          endchar
        </CharString>
        <CharString name="Utilde">
          -87 callsubr
          94 49 -99 callgsubr
          endchar
        </CharString>
        <CharString name="V">
          100 365 172 rmoveto
          -174 530 rlineto
          -182 hlineto
          249 -702 rlineto
          214 hlineto
          249 702 rlineto
          -181 hlineto
          endchar
        </CharString>
        <CharString name="W">
          -54 callgsubr
          endchar
        </CharString>
        <CharString name="Wacute">
          -54 callgsubr
          405 159 -72 callgsubr
          endchar
        </CharString>
        <CharString name="Wcircumflex">
          -54 callgsubr
          654 159 -69 callsubr
          endchar
        </CharString>
        <CharString name="Wdieresis">
          -54 callgsubr
          399 63 rmoveto
          -102 callgsubr
          200 hmoveto
          -102 callgsubr
          endchar
        </CharString>
        <CharString name="Wgrave">
          -54 callgsubr
          362 139 -38 callsubr
          endchar
        </CharString>
        <CharString name="X">
          85 492 hmoveto
          199 hlineto
          -232 348 223 354 rlineto
          -194 hlineto
          -124 -212 -141 212 rlineto
          -199 hlineto
          230 -345 -225 -357 rlineto
          194 hlineto
          126 215 rlineto
          endchar
        </CharString>
        <CharString name="Y">
          -32 callgsubr
          endchar
        </CharString>
        <CharString name="Yacute">
          -32 callgsubr
          204 158 -72 callgsubr
          endchar
        </CharString>
        <CharString name="Ycircumflex">
          -32 callgsubr
          484 158 -69 callsubr
          endchar
        </CharString>
        <CharString name="Ydieresis">
          -32 callgsubr
          228 64 rmoveto
          -102 callgsubr
          200 hmoveto
          -102 callgsubr
          endchar
        </CharString>
        <CharString name="Ygrave">
          -32 callgsubr
          204 141 -38 callsubr
          endchar
        </CharString>
        <CharString name="Z">
          16 callsubr
          endchar
        </CharString>
        <CharString name="Zacute">
          16 callsubr
          -373 288 -72 callgsubr
          endchar
        </CharString>
        <CharString name="Zcaron">
          16 callsubr
          -248 280 -68 callgsubr
        </CharString>
        <CharString name="Zdotaccent">
          16 callsubr
          -249 194 rmoveto
          -102 callgsubr
          endchar
        </CharString>
        <CharString name="a">
          -99 callsubr
          endchar
        </CharString>
        <CharString name="a.ss02">
          -4 392 hmoveto
          -102 callsubr
        </CharString>
        <CharString name="aacute">
          -99 callsubr
          -228 435 -72 callgsubr
          endchar
        </CharString>
        <CharString name="aacute.ss02">
          -4 218 279 callsubr
          -67 -830 rmoveto
          -102 callsubr
        </CharString>
        <CharString name="abreve">
          -99 callsubr
          68 492 -83 callgsubr
          endchar
        </CharString>
        <CharString name="abreve.ss02">
          -4 514 771 -83 callgsubr
          -122 -771 rmoveto
          -102 callsubr
        </CharString>
        <CharString name="acircumflex">
          -99 callsubr
          52 435 -69 callsubr
          endchar
        </CharString>
        <CharString name="acircumflex.ss02">
          -4 498 714 -69 callsubr
          -106 -596 rmoveto
          -102 callsubr
        </CharString>
        <CharString name="acute">
          -369 10 279 callsubr
          endchar
        </CharString>
        <CharString name="adieresis">
          -99 callsubr
          -204 341 rmoveto
          -102 callgsubr
          200 hmoveto
          -102 callgsubr
          endchar
        </CharString>
        <CharString name="adieresis.ss02">
          -4 242 620 rmoveto
          -102 callgsubr
          200 hmoveto
          -102 callgsubr
          -50 -620 rmoveto
          -102 callsubr
        </CharString>
        <CharString name="ae">
          439 -19 callgsubr
          endchar
        </CharString>
        <CharString name="agrave">
          -99 callsubr
          -228 418 -38 callsubr
          endchar
        </CharString>
        <CharString name="agrave.ss02">
          -4 218 697 -38 callsubr
          174 -830 rmoveto
          -102 callsubr
        </CharString>
        <CharString name="amacron">
          -99 callsubr
          -303 349 71 callgsubr
          endchar
        </CharString>
        <CharString name="amacron.ss02">
          -4 143 628 71 callgsubr
          249 -746 rmoveto
          -102 callsubr
        </CharString>
        <CharString name="ampersand">
          168 560 532 rmoveto
          97 3 -71 87 -143 hhcurveto
          -140 -79 -80 -99 -45 13 -38 36 -43 hvcurveto
          -97 -46 -46 -75 -86 vvcurveto
          -130 103 -85 163 92 76 25 49 64 vhcurveto
          65 -63 rlineto
          199 hlineto
          -169 166 22 33 21 37 19 42 rlinecurve
          48 87 rlineto
          -171 hlineto
          -37 -63 -4 -10 -5 -9 -4 -9 rlinecurve
          -171 167 rlineto
          -37 39 -19 29 29 vvcurveto
          30 24 20 32 30 23 -18 -38 -1 vhcurveto
          -89 -405 rmoveto
          -68 -41 40 49 40 24 35 48 25 hvcurveto
          156 -151 rlineto
          -25 -34 -39 -13 -46 hhcurveto
          endchar
        </CharString>
        <CharString name="ampersand.ss03">
          60 143 554 rmoveto
          -48 15 -42 34 -45 vhcurveto
          -91 -16 -71 -80 -112 vvcurveto
          -121 86 -97 140 83 66 38 53 36 vhcurveto
          62 -84 rlineto
          181 hlineto
          -349 475 rlineto
          -22 30 -7 16 19 vvcurveto
          25 18 20 27 30 18 -20 -29 1 vhcurveto
          1 -12 0 -15 -3 -14 rrcurveto
          162 hlineto
          4 28 -1 31 -7 29 rrcurveto
          75 -15 -64 69 -128 hhcurveto
          -135 -71 -85 -88 hvcurveto
          35 -339 rmoveto
          45 33 34 46 45 35 -34 -45 -47 -35 -34 -45 -46 -33 34 47 vhcurveto
          endchar
        </CharString>
        <CharString name="aogonek">
          41 callsubr
          136 83 59 38 49 31 vhcurveto
          -69 vlineto
          -51 -36 -17 -37 -40 -9 callgsubr
          rlineto
          215 callsubr
          -79 vlineto
          49 -30 -59 38 -83 hhcurveto
          -137 -109 -110 -176 hvcurveto
          418 -1 rmoveto
          -89 -57 -49 -65 -64 -58 50 89 89 58 48 64 65 57 -49 -89 vhcurveto
          endchar
        </CharString>
        <CharString name="aogonek.ss02">
          -4 571 -202 rmoveto
          51 callgsubr
          rlineto
          328 vlineto
          147 -108 92 -151 -143 -101 -90 -122 -23 vhcurveto
          171 hlineto
          43 10 33 28 50 hhcurveto
          55 33 -39 -60 2 hvcurveto
          -125 hlineto
          -167 -72 -77 -97 -100 80 -64 102 77 76 37 52 29 hvcurveto
          -69 vlineto
          -50 -36 -17 -36 211 callgsubr
          -369 378 rmoveto
          34 25 26 58 vhcurveto
          106 -7 hlineto
          -70 -63 -41 -58 -43 -25 22 36 vhcurveto
          endchar
        </CharString>
        <CharString name="apostrophemod.ss01">
          -399 40 840 rmoveto
          -78 callgsubr
          endchar
        </CharString>
        <CharString name="approxequal">
          6 28 122 rmoveto
          39 callgsubr
          250 vmoveto
          39 callgsubr
          endchar
        </CharString>
        <CharString name="aring">
          -99 callsubr
          -103 562 -3 callsubr
          endchar
        </CharString>
        <CharString name="aring.ss02">
          -4 343 841 -3 callsubr
          49 -671 rmoveto
          -102 callsubr
        </CharString>
        <CharString name="asciicircum">
          79 507 165 rmoveto
          172 hlineto
          -241 539 rlineto
          -166 hlineto
          -242 -539 rlineto
          172 hlineto
          153 341 rlineto
          endchar
        </CharString>
        <CharString name="asciitilde">
          6 28 208 rmoveto
          39 callgsubr
          endchar
        </CharString>
        <CharString name="asterisk">
          -96 329 740 rmoveto
          -119 hlineto
          26 -132 -104 87 -57 -103 122 -40 -123 -43 62 -108 99 89 -24 -130 rlineto
          117 hlineto
          -25 130 100 -88 60 106 -123 42 123 43 -56 102 -104 -87 rlineto
          endchar
        </CharString>
        <CharString name="at">
          450 754 -5 rmoveto
          164 89 151 167 210 -149 145 -240 -312 -233 -228 -307 -218 151 -140 230 80 74 14 29 66 hvcurveto
          -27 109 rlineto
          -23 -50 -63 -13 -64 hhcurveto
          -169 -99 94 161 227 170 180 229 175 101 -93 -152 -94 -30 -109 -69 -39 -5 30 46 8 hvcurveto
          44 251 rlineto
          -138 hlineto
          -9 -53 rlineto
          38 -19 -38 22 -57 hhcurveto
          -137 -95 -134 -146 -103 60 -63 99 70 61 30 52 37 hvcurveto
          -50 16 47 -30 71 hhcurveto
          -140 245 rmoveto
          -68 -49 -56 -57 -45 -22 30 43 68 42 60 60 45 26 -32 -45 vhcurveto
          endchar
        </CharString>
        <CharString name="atilde">
          -99 callsubr
          -303 326 -99 callgsubr
          endchar
        </CharString>
        <CharString name="atilde.ss02">
          -4 143 605 -99 callgsubr
          249 -605 rmoveto
          -102 callsubr
        </CharString>
        <CharString name="b">
          49 233 479 rmoveto
          261 -171 -740 171 78 vlineto
          -49 31 59 -37 296 callgsubr
          -108 110 -138 -80 -61 -37 -50 180 callgsubr
        </CharString>
        <CharString name="backslash">
          172 348 950 rmoveto
          -165 hlineto
          268 -1137 rlineto
          165 hlineto
          endchar
        </CharString>
        <CharString name="bar">
          -339 60 815 rmoveto
          -944 171 944 vlineto
          endchar
        </CharString>
        <CharString name="braceleft">
          -131 186 207 rmoveto
          -62 -21 -99 -76 vvcurveto
          -117 77 -64 114 vhcurveto
          72 140 -39 hlineto
          -43 -17 20 38 hvcurveto
          54 17 102 70 vvcurveto
          72 -33 51 -74 15 vhcurveto
          2 vlineto
          74 14 33 52 71 70 -17 103 54 vvcurveto
          38 17 19 43 vhcurveto
          39 140 -72 hlineto
          -114 -77 -64 -116 hvcurveto
          -76 21 -99 -62 vvcurveto
          -47 -28 -27 -67 -3 vhcurveto
          -136 vlineto
          67 -3 28 -30 -44 vvcurveto
          endchar
        </CharString>
        <CharString name="braceright">
          -131 313 207 rmoveto
          -62 21 -99 -76 vvcurveto
          -117 -77 -64 -114 vhcurveto
          -72 140 39 hlineto
          43 17 20 38 hvcurveto
          54 -17 102 70 vvcurveto
          72 33 51 74 15 vhcurveto
          2 vlineto
          -74 14 -33 52 71 70 17 103 54 vvcurveto
          38 -17 19 -43 vhcurveto
          -39 140 72 hlineto
          114 77 -64 -116 hvcurveto
          -76 -21 -99 -62 vvcurveto
          -47 28 -27 67 -3 vhcurveto
          -136 vlineto
          -67 -3 -28 -30 -44 vvcurveto
          endchar
        </CharString>
        <CharString name="bracketleft">
          -120 120 -209 rmoveto
          300 139 -140 845 140 138 -300 hlineto
          endchar
        </CharString>
        <CharString name="bracketright">
          -120 390 -209 rmoveto
          -300 139 140 845 -140 138 300 hlineto
          endchar
        </CharString>
        <CharString name="breve">
          -270 351 771 -83 callgsubr
          endchar
        </CharString>
        <CharString name="brokenbar">
          -249 105 281 rmoveto
          -410 171 410 vlineto
          124 vmoveto
          410 -171 -410 vlineto
          endchar
        </CharString>
        <CharString name="bullet">
          -129 250 183 rmoveto
          85 66 66 84 85 -66 66 -85 -84 -66 -66 -85 -84 66 -66 84 hvcurveto
          endchar
        </CharString>
        <CharString name="c">
          -52 callsubr
          endchar
        </CharString>
        <CharString name="cacute">
          -52 callsubr
          147 435 -72 callgsubr
          endchar
        </CharString>
        <CharString name="caron">
          -300 165 706 -68 callgsubr
        </CharString>
        <CharString name="ccaron">
          -52 callsubr
          271 427 -68 callgsubr
        </CharString>
        <CharString name="ccedilla">
          -25 28 279 rmoveto
          -157 92 -105 135 -21 vhcurveto
          -122 71 vlineto
          -5 callgsubr
          37 vlineto
          113 17 80 76 25 113 rrcurveto
          -182 hlineto
          -41 -15 -27 -23 -47 hhcurveto
          -61 -42 48 93 93 42 48 61 47 28 -25 -39 14 hvcurveto
          182 hlineto
          133 -29 -99 77 -140 hhcurveto
          -164 -116 -111 -176 hvcurveto
          endchar
        </CharString>
        <CharString name="cdotaccent">
          -52 callsubr
          270 341 rmoveto
          -102 callgsubr
          endchar
        </CharString>
        <CharString name="cedilla">
          -317 173 7 rmoveto
          -103 -129 71 hlineto
          -5 callgsubr
          endchar
        </CharString>
        <CharString name="cent">
          1 562 190 rmoveto
          -157 hlineto
          -36 -11 -34 -21 -46 hhcurveto
          -68 -41 46 77 77 41 46 68 46 32 -19 -38 13 hvcurveto
          157 hlineto
          -9 113 -93 71 -117 10 rrcurveto
          81 -64 -82 vlineto
          -150 -13 -87 -99 -147 vvcurveto
          -147 87 -99 150 -13 vhcurveto
          -82 64 81 vlineto
          117 10 93 71 9 113 rrcurveto
          endchar
        </CharString>
        <CharString name="circumflex">
          -300 320 714 -69 callsubr
          endchar
        </CharString>
        <CharString name="colon">
          -346 243 222 callsubr
          407 vmoveto
          145 callsubr
        </CharString>
        <CharString name="colon.ss01">
          -323 66 283 callsubr
          230 vmoveto
          120 callgsubr
          endchar
        </CharString>
        <CharString name="comma">
          -340 19 -151 130 callsubr
          endchar
        </CharString>
        <CharString name="comma.ss01">
          -386 28 303 callgsubr
          -34 vhcurveto
          -67 vlineto
          108 46 70 95 44 -11 49 -18 41 hvcurveto
          endchar
        </CharString>
        <CharString name="copyright">
          149 38 353 rmoveto
          -211 143 -149 209 209 143 149 211 211 -143 148 -209 -209 -143 -148 -211 vhcurveto
          644 hmoveto
          -183 -112 -121 -180 -180 -112 121 183 185 112 118 180 180 112 -118 -185 vhcurveto
          -82 61 rmoveto
          -147 hlineto
          29 -9 -23 20 -35 hhcurveto
          -48 -31 -36 -74 -73 31 -37 48 38 19 21 28 10 hvcurveto
          147 hlineto
          -99 -21 -82 -65 -106 hhcurveto
          -129 -93 87 138 138 93 87 129 106 82 -62 -102 21 hvcurveto
          endchar
        </CharString>
        <CharString name="currency">
          -53 363 377 rmoveto
          -56 -36 -25 -38 -39 -34 25 56 57 35 25 38 39 35 -25 -57 vhcurveto
          88 -227 rmoveto
          66 67 -54 54 rlineto
          22 29 13 36 42 vvcurveto
          43 -13 37 -22 29 vhcurveto
          54 54 -66 67 -66 -66 rlineto
          10 -28 -32 6 -35 hhcurveto
          -36 -32 -6 -11 -29 hvcurveto
          -67 67 -66 -67 56 -56 rlineto
          -22 -29 -12 -36 -42 vvcurveto
          -41 12 -36 21 -29 vhcurveto
          -55 -55 66 -67 64 64 rlineto
          -12 29 33 -6 37 hhcurveto
          36 33 6 12 29 hvcurveto
          endchar
        </CharString>
        <CharString name="d">
          41 callsubr
          137 82 59 37 51 31 vhcurveto
          -80 298 callsubr
          -259 43 callgsubr
        </CharString>
        <CharString name="dagger">
          24 395 545 rmoveto
          216 callsubr
          -17 -707 rlineto
          171 hlineto
          -17 707 209 -13 rlineto
          130 vlineto
          endchar
        </CharString>
        <CharString name="daggerdbl">
          24 604 558 rmoveto
          -209 -13 216 callsubr
          rlineto
          -359 vlineto
          -208 13 rlineto
          -130 vlineto
          208 13 -17 -244 rlineto
          171 hlineto
          -17 244 209 -13 rlineto
          130 vlineto
          -209 -13 rlineto
          359 vlineto
          209 -13 rlineto
          endchar
        </CharString>
        <CharString name="danda">
          -286 303 248 callgsubr
          endchar
        </CharString>
        <CharString name="dcaron">
          204 673 740 rmoveto
          -78 callgsubr
          -776 -460 63 callgsubr
          137 82 59 37 51 31 vhcurveto
          -80 298 callsubr
          -259 43 callgsubr
        </CharString>
        <CharString name="dcroat">
          62 78 callsubr
          137 82 59 37 51 31 vhcurveto
          -80 171 591 62 82 -62 67 -171 -67 -70 -82 70 -110 43 callgsubr
        </CharString>
        <CharString name="degree">
          -167 25 529 rmoveto
          -111 86 -71 122 122 83 71 111 112 -84 68 -122 -122 -85 -68 -112 vhcurveto
          281 -1 rmoveto
          -61 -37 -27 -36 -37 -39 27 61 62 38 27 37 36 38 -27 -62 vhcurveto
          endchar
        </CharString>
        <CharString name="dieresis">
          -263 83 620 rmoveto
          -102 callgsubr
          200 hmoveto
          -102 callgsubr
          endchar
        </CharString>
        <CharString name="divide">
          -19 53 275 rmoveto
          511 151 -511 hlineto
          360 -303 rmoveto
          -49 callgsubr
          453 vmoveto
          145 callsubr
        </CharString>
        <CharString name="divide.ss01">
          -19 53 273 rmoveto
          511 154 -511 hlineto
          166 -388 rmoveto
          120 callgsubr
          274 vmoveto
          177 175 -177 hlineto
          endchar
        </CharString>
        <CharString name="dollar">
          28 285 -87 rmoveto
          64 81 hlineto
          158 7 86 95 108 vvcurveto
          155 -137 29 -107 30 vhcurveto
          155 vlineto
          28 -10 19 -23 4 -37 rrcurveto
          183 hlineto
          -9 127 -88 70 -137 11 rrcurveto
          81 -64 -81 vlineto
          -136 -9 -105 -74 -125 vvcurveto
          -157 134 -30 107 -28 vhcurveto
          -158 vlineto
          -34 11 -20 25 -4 41 rrcurveto
          -182 hlineto
          5 -129 99 -71 136 -12 rrcurveto
          129 203 rmoveto
          -37 -25 -27 -40 -7 vhcurveto
          142 vlineto
          39 -15 26 -20 -36 vvcurveto
          -189 313 rmoveto
          39 23 22 37 6 vhcurveto
          -139 vlineto
          -36 16 -24 21 35 vvcurveto
          endchar
        </CharString>
        <CharString name="dotaccent">
          -463 83 620 rmoveto
          -102 callgsubr
          endchar
        </CharString>
        <CharString name="dotlessi">
          100 callsubr
          endchar
        </CharString>
        <CharString name="dottedcircle">
          21 557 409 -46 callgsubr
          -376 -286 -46 callgsubr
          98 -76 -46 callgsubr
          -143 189 -46 callgsubr
          267 -203 -46 callgsubr
          -252 324 -46 callgsubr
          367 -278 -46 callgsubr
          -291 377 -46 callgsubr
          364 -281 -46 callgsubr
          -247 323 -46 callgsubr
          257 -203 -46 callgsubr
          -136 188 -46 callgsubr
          endchar
        </CharString>
        <CharString name="doubledanda">
          -13 303 248 callgsubr
          272 248 callgsubr
          endchar
        </CharString>
        <CharString name="dvA">
          209 268 476 rmoveto
          -56 callsubr
          156 268 callsubr
          -255 -68 callsubr
          endchar
        </CharString>
        <CharString name="dvAA">
          525 268 476 rmoveto
          -56 callsubr
          156 278 callsubr
          -574 -68 callsubr
          endchar
        </CharString>
        <CharString name="dvAI">
          23 337 19 rmoveto
          145 96 82 144 hvcurveto
          40 callsubr
          -97 68 callsubr
          -443 -131 211 callsubr
          vhcurveto
          endchar
        </CharString>
        <CharString name="dvAU">
          237 callgsubr
          -108 vlineto
          317 -164 -30 15 -153 36 callgsubr
          -328 -68 callsubr
          -56 callsubr
          hlineto
          endchar
        </CharString>
        <CharString name="dvAbbreviationsign">
          -154 240 504 rmoveto
          -102 -72 -69 -99 -98 72 -69 102 100 70 69 98 99 -70 69 -100 hvcurveto
          -93 vmoveto
          43 31 -32 -43 -44 -31 -30 -43 -46 -33 30 44 44 33 31 46 hvcurveto
          endchar
        </CharString>
        <CharString name="dvAcandra">
          213 268 476 rmoveto
          -56 callsubr
          156 268 callsubr
          -255 -68 callsubr
          419 348 -10 callsubr
        </CharString>
        <CharString name="dvAnusvara">
          -630 -161 813 -14 callgsubr
        </CharString>
        <CharString name="dvAnusvara.amI">
          -630 133 813 -14 callgsubr
        </CharString>
        <CharString name="dvAvagraha">
          -33 57 46 rmoveto
          276 hlineto
          102 71 56 91 hvcurveto
          176 -226 58 78 vvcurveto
          29 24 6 24 vhcurveto
          188 132 -227 hlineto
          -98 -71 -47 -96 hvcurveto
          -175 226 -59 -78 vvcurveto
          -24 -18 -15 -36 vhcurveto
          -235 hlineto
          endchar
        </CharString>
        <CharString name="dvB">
          -244 318 58 rmoveto
          175 88 113 134 122 -83 116 -181 -167 -97 -104 -135 102 callsubr
          hvcurveto
          4 378 rmoveto
          -79 callgsubr
          -339 173 rmoveto
          601 131 -601 hlineto
          339 -574 -35 callgsubr
          endchar
        </CharString>
        <CharString name="dvBA">
          58 456 hmoveto
          151 -97 callgsubr
          -722 -131 473 -129 hlineto
          163 callsubr
          -139 -103 -96 -141 -145 259 callgsubr
          hvcurveto
          -127 314 -21 callgsubr
        </CharString>
        <CharString name="dvBH">
          -90 -36 callgsubr
          203 128 -203 -1 callgsubr
        </CharString>
        <CharString name="dvBHA">
          223 -36 callgsubr
          124 -336 158 callsubr
          -256 -276 -124 -1 callgsubr
        </CharString>
        <CharString name="dvBH_LA">
          824 -36 callgsubr
          107 vlineto
          -3 -16 -1 -18 -19 vvcurveto
          -146 92 -107 168 8 11 0 1 15 vhcurveto
          105 callsubr
          -9 -12 -1 -6 hhcurveto
          -65 -42 43 72 62 32 43 60 63 -34 callsubr
          65 59 30 -44 -61 -72 -42 -43 -64 -6 -11 1 1 -10 -13 callgsubr
          -64 callgsubr
          -888 -131 540 -91 vlineto
          -65 -15 -38 -42 -21 -51 rrcurveto
          -4 hlineto
          62 -26 -53 52 -96 hhcurveto
          -60 -57 -20 -40 -43 hvcurveto
          -171 47 hlineto
          2 callsubr
        </CharString>
        <CharString name="dvBH_NA">
          736 -36 callgsubr
          109 vlineto
          -4 -17 -2 -18 -19 vvcurveto
          -135 106 -78 119 259 callsubr
          -15 27 vhcurveto
          127 -365 -77 callgsubr
          -790 -131 535 -113 -298 hlineto
          -50 -47 -11 -21 -38 hvcurveto
          -205 47 hlineto
          -81 callsubr
          545 141 220 callsubr
        </CharString>
        <CharString name="dvBH_R">
          -90 125 callsubr
          3 -129 rmoveto
          136 76 92 133 hvcurveto
          37 206 126 -206 40 vlineto
          56 callgsubr
          -69 -65 276 callsubr
          -63 -132 -117 89 -76 131 hvcurveto
          -3 -172 rmoveto
          171 hlineto
          250 252 rlineto
          142 vlineto
          endchar
        </CharString>
        <CharString name="dvBH_RA">
          223 125 callsubr
          3 -129 rmoveto
          136 76 92 133 hvcurveto
          37 154 -88 vlineto
          -369 -346 rlineto
          171 284 callsubr
          141 268 callsubr
          -249 -269 -154 40 vlineto
          56 callgsubr
          -69 -65 276 callsubr
          -63 -132 -117 89 -76 131 hvcurveto
          endchar
        </CharString>
        <CharString name="dvBH_R_YA">
          653 125 callsubr
          614 1 14 callsubr
          -611 -130 rmoveto
          136 76 92 133 hvcurveto
          37 93 vlineto
          2 -45 9 -40 16 -35 -335 -314 rcurveline
          171 hlineto
          231 227 rlineto
          -36 44 60 -20 73 -2 callgsubr
          -143 47 hlineto
          56 callgsubr
          -76 -65 276 callsubr
          -60 -128 -117 89 -76 131 hvcurveto
          endchar
        </CharString>
        <CharString name="dvBH_VA">
          574 -36 callgsubr
          102 228 callsubr
          142 68 53 26 46 34 vhcurveto
          -134 154 -13 callsubr
          -634 -131 383 -144 vlineto
          44 -33 -54 26 -68 hhcurveto
          -73 -58 -27 -44 -39 hvcurveto
          -155 47 hlineto
          -81 callsubr
          103 callsubr
        </CharString>
        <CharString name="dvBH_YA">
          653 -36 callgsubr
          91 vlineto
          -155 10 97 -99 163 -2 callgsubr
          -140 47 hlineto
          -81 callsubr
          611 152 14 callsubr
          endchar
        </CharString>
        <CharString name="dvB_BA">
          464 322 188 callgsubr
          540 -436 rmoveto
          151 -97 callgsubr
          -1128 -131 879 -129 hlineto
          163 callsubr
          -74 -64 -27 -47 -44 hvcurveto
          46 -43 -66 30 -93 -37 callgsubr
          91 67 30 48 44 hvcurveto
          -48 43 65 -29 74 hhcurveto
          250 callgsubr
          hvcurveto
          -540 40 -35 callgsubr
          413 5 rmoveto
          -75 -64 50 -15 callgsubr
          215 -161 rlineto
          -18 -22 -29 -10 -36 hhcurveto
          269 vmoveto
          -43 callsubr
          endchar
        </CharString>
        <CharString name="dvB_BHA">
          624 674 194 rmoveto
          -41 215 callgsubr
          36 25 49 311 callsubr
          -23 -35 -48 vhcurveto
          3 -133 rmoveto
          286 callsubr
          124 -336 -77 callgsubr
          -255 -276 -124 47 vlineto
          133 -52 105 -155 -26 -24 -3 -6 -21 vhcurveto
          -631 -131 627 1 hlineto
          57 -1 rlineto
          3 7 7 3 10 hhcurveto
          38 16 -31 -44 hvcurveto
          -76 -63 vlineto
          -51 -47 -11 -22 -38 hvcurveto
          65 -39 -75 47 -115 -37 callgsubr
          84 63 26 41 44 hvcurveto
          -41 38 58 -23 72 hhcurveto
          -355 375 -63 callsubr
          endchar
        </CharString>
        <CharString name="dvB_BH_RA">
          645 322 436 rmoveto
          86 51 -64 -72 hvcurveto
          -3 vlineto
          -4 -1 -4 -4 vvcurveto
          -1 -14 -4 -14 -5 -12 -213 162 rcurveline
          19 23 31 10 33 hhcurveto
          -270 vmoveto
          -80 callsubr
          352 46 rmoveto
          -41 -31 24 41 43 34 25 48 hvcurveto
          64 -45 hlineto
          -53 -23 -35 -51 vhcurveto
          379 -212 rmoveto
          141 -97 callgsubr
          -248 -269 -154 40 hlineto
          300 callgsubr
          312 callgsubr
          -21 vhcurveto
          -631 -131 680 hlineto
          5 7 8 2 12 hhcurveto
          41 17 -31 -45 hvcurveto
          -69 -65 vlineto
          -53 -48 -12 -23 -39 hvcurveto
          63 -40 -74 44 -112 -37 callgsubr
          90 67 30 47 44 hvcurveto
          -33 38 55 -19 65 hhcurveto
          137 76 92 133 hvcurveto
          37 154 -87 vlineto
          -370 -347 rlineto
          171 hlineto
          208 209 rlineto
          endchar
        </CharString>
        <CharString name="dvB_DA">
          388 954 -33 rmoveto
          -75 callsubr
          hlineto
          1 131 rlineto
          -1052 -131 780 -80 -38 hlineto
          -81 -71 -24 -45 -47 hvcurveto
          50 -43 -69 33 -97 -37 callgsubr
          87 65 28 44 44 hvcurveto
          -44 40 57 -21 61 hhcurveto
          55 45 18 31 28 hvcurveto
          -147 vlineto
          -478 199 -51 callsubr
        </CharString>
        <CharString name="dvB_DHA">
          483 178 callgsubr
          359 -87 rmoveto
          94 71 32 56 42 hvcurveto
          -166 59 callgsubr
          -64 -42 23 47 45 38 23 61 vhcurveto
          -94 callgsubr
          214 callsubr
          vhcurveto
          -590 -131 471 256 callgsubr
          -47 -11 -55 -36 -12 -69 rrcurveto
          0 vlineto
          -2 -16 -4 -15 -7 -14 -216 165 rcurveline
          21 25 33 11 36 hhcurveto
          22 15 -2 -4 18 hvcurveto
          103 vlineto
          7 -24 -26 1 -21 hhcurveto
          -150 -107 -98 -146 -157 124 -85 139 80 68 29 52 43 hvcurveto
          -40 42 64 -21 72 hhcurveto
          endchar
        </CharString>
        <CharString name="dvB_DH_VA">
          877 178 callgsubr
          1101 444 rmoveto
          97 131 -613 -131 362 -144 hlineto
          -56 callgsubr
          214 callsubr
          vhcurveto
          -590 -131 471 256 callgsubr
          -47 -11 -55 -36 -12 -69 rrcurveto
          0 vlineto
          -2 -16 -4 -15 -7 -14 -216 165 rcurveline
          21 25 33 11 36 hhcurveto
          22 15 -2 -4 18 hvcurveto
          103 vlineto
          7 -24 -26 1 -21 hhcurveto
          -150 -107 -98 -146 -157 124 -85 139 80 67 29 52 44 hvcurveto
          -43 44 71 -20 84 hhcurveto
          301 callsubr
          hvcurveto
          117 callgsubr
        </CharString>
        <CharString name="dvB_JA">
          609 179 callsubr
          837 -166 rmoveto
          -13 callsubr
          -1273 -131 1018 -121 -268 -160 vlineto
          25 callgsubr
          140 74 318 callsubr
          -679 188 callgsubr
          endchar
        </CharString>
        <CharString name="dvB_JHA">
          722 322 166 rmoveto
          -74 -65 51 83 21 4 19 6 16 hvcurveto
          216 -163 rlineto
          -17 -24 -29 -10 -34 hhcurveto
          371 167 rmoveto
          -36 -26 13 32 36 33 11 34 hvcurveto
          232 184 186 -276 hlineto
          -333 vmoveto
          155 -13 callsubr
          -1385 -131 795 -73 -117 hlineto
          -100 -83 -46 -110 hvcurveto
          -31 vlineto
          -39 -9 -37 -17 -31 vhcurveto
          -219 167 rlineto
          19 25 32 10 36 hhcurveto
          28 23 -4 -7 22 hvcurveto
          106 vlineto
          6 -25 -27 4 -30 -37 callgsubr
          135 79 79 108 28 hvcurveto
          27 -13 31 -7 29 -1 rrcurveto
          -2 28 61 0 39 hhcurveto
          60 27 -25 -39 -32 -21 -26 -48 -51 -31 28 41 -4 hvcurveto
          -134 -253 142 117 hlineto
          -17 18 40 -31 70 hhcurveto
          106 58 134 callgsubr
          126 hlineto
          endchar
        </CharString>
        <CharString name="dvB_J_YA">
          1064 1296 213 rmoveto
          -92 -52 55 77 -4 hvcurveto
          107 19 54 74 97 vvcurveto
          74 192 callsubr
          -974 223 -63 callsubr
          1291 -166 rmoveto
          -13 callsubr
          -1727 -131 1171 -45 vlineto
          -71 -34 -43 -114 vhcurveto
          -273 -122 hlineto
          25 callgsubr
          138 74 91 129 2 hvcurveto
          110 hlineto
          -146 21 93 -92 153 221 callgsubr
        </CharString>
        <CharString name="dvB_JxA">
          612 1159 hmoveto
          -13 callsubr
          -1273 -131 1018 -121 -268 -160 vlineto
          25 callgsubr
          140 74 318 callsubr
          -339 90 callsubr
          -340 305 -51 callsubr
        </CharString>
        <CharString name="dvB_LA">
          670 988 294 callsubr
          -71 33 hvcurveto
          107 193 131 -1334 -131 986 -91 vlineto
          -65 -15 -38 -43 -21 -50 rrcurveto
          38 callgsubr
          63 25 55 65 59 31 -44 -61 -72 -43 -43 -64 -6 -11 1 1 -10 -13 callgsubr
          -666 136 -51 callsubr
        </CharString>
        <CharString name="dvB_L_YA">
          1151 179 callsubr
          1377 -166 rmoveto
          268 callsubr
          -1815 -131 1258 -51 vlineto
          -58 -15 -43 -45 -22 vhcurveto
          59 -36 -60 30 -66 hhcurveto
          -96 -53 -51 -63 -25 hvcurveto
          38 callgsubr
          64 26 54 66 47 25 -29 -28 8 vhcurveto
          -151 11 95 -96 164 hhcurveto
          87 65 29 45 40 hvcurveto
          -156 vlineto
          -158 213 200 callgsubr
          116 14 45 75 102 240 callsubr
          -59 -68 -99 vhcurveto
          -1062 223 191 callsubr
        </CharString>
        <CharString name="dvB_NA">
          602 685 202 -103 callgsubr
          466 -202 -8 callgsubr
          -1266 -131 1010 202 callsubr
          -61 -57 -16 -32 -43 hvcurveto
          56 -42 -72 39 -104 -37 callgsubr
          89 66 29 46 44 hvcurveto
          -42 42 60 -22 227 callsubr
          -671 166 -4 callsubr
          84 51 -61 -71 2 hvcurveto
          -1 -6 0 -6 -9 vvcurveto
          -2 -13 -3 -13 -5 -12 -213 162 rcurveline
          19 23 31 10 33 hhcurveto
          endchar
        </CharString>
        <CharString name="dvB_R">
          -244 4 callgsubr
          601 131 -601 hlineto
          373 -802 rmoveto
          175 211 rlineto
          0 vlineto
          33 43 17 54 59 vvcurveto
          122 -83 116 -181 -167 -97 -104 -135 -138 95 -104 162 -4 vhcurveto
          -112 -120 rlineto
          124 498 -63 callsubr
          endchar
        </CharString>
        <CharString name="dvB_RA">
          57 450 121 244 callgsubr
          -721 -131 473 -129 vlineto
          163 callsubr
          -139 -103 -96 -141 -126 83 -90 117 -18 hvcurveto
          -123 -132 rlineto
          165 hlineto
          34 502 -21 callgsubr
        </CharString>
        <CharString name="dvB_SA">
          594 322 436 -63 callsubr
          511 377 rmoveto
          66 153 -181 -178 vlineto
          17 86 callsubr
          61 107 callsubr
          -19 34 43 vhcurveto
          98 371 -300 158 callsubr
          -1259 -131 693 -66 vlineto
          -71 -30 -52 -89 -7 vhcurveto
          75 -37 -78 55 -125 -37 callgsubr
          73 58 20 32 42 hvcurveto
          -71 30 63 -48 97 hhcurveto
          267 callsubr
          hvcurveto
          endchar
        </CharString>
        <CharString name="dvB_SHA">
          618 698 -7 rmoveto
          136 87 79 135 2 0 6 -1 10 hvcurveto
          -154 -16 hlineto
          -47 -25 -34 -46 -58 -20 41 48 vhcurveto
          70 39 vlineto
          152 123 74 164 144 -94 80 -136 -26 -24 -3 -6 -21 hvcurveto
          -647 -131 694 hlineto
          3 7 8 1 9 hhcurveto
          45 25 -32 -46 -89 -85 -27 -88 hvcurveto
          -44 hlineto
          72 -38 -77 52 -122 -37 callgsubr
          75 59 21 34 43 hvcurveto
          -76 34 70 -44 99 hhcurveto
          -376 443 -63 callsubr
          685 -166 207 callsubr
        </CharString>
        <CharString name="dvB_TA">
          481 1030 109 callgsubr
          -1145 -131 890 251 callgsubr
          -76 -69 -18 -38 -51 hvcurveto
          63 -41 -74 44 -112 -37 callgsubr
          72 57 19 32 43 hvcurveto
          -75 44 85 -33 97 226 callgsubr
          hlineto
          -551 166 -51 callsubr
        </CharString>
        <CharString name="dvB_VA">
          443 726 187 -85 callsubr
          -1107 -131 856 -16 callgsubr
          -70 -56 -25 -42 -39 hvcurveto
          45 -43 -67 30 -91 -37 callgsubr
          88 67 29 46 43 hvcurveto
          -44 39 56 -27 72 hhcurveto
          68 54 26 46 34 hvcurveto
          -134 194 callsubr
          vlineto
          -670 -173 -63 callsubr
          endchar
        </CharString>
        <CharString name="dvB_YA">
          510 760 213 142 callsubr
          -1191 -131 635 -45 vlineto
          -64 -18 -46 -55 -19 vhcurveto
          63 -41 -74 45 -113 -37 callgsubr
          100 72 37 57 43 hvcurveto
          -45 45 66 -25 82 261 callgsubr
          -158 vlineto
          -598 166 -51 callsubr
        </CharString>
        <CharString name="dvC">
          -188 51 389 rmoveto
          134 hlineto
          -32 -29 -17 -40 -48 vvcurveto
          -127 99 -64 138 177 103 114 173 -2 vhcurveto
          178 callsubr
          -68 97 rmoveto
          668 131 -668 hlineto
          endchar
        </CharString>
        <CharString name="dvCA">
          123 4 callgsubr
          532 -241 hlineto
          -92 -46 -62 -81 -1 vhcurveto
          -58 -1 -47 21 callsubr
          -119 90 -70 114 296 callsubr
          98 131 -787 vlineto
          endchar
        </CharString>
        <CharString name="dvCH">
          118 callgsubr
          -150 140 -72 200 240 callgsubr
          52 callsubr
        </CharString>
        <CharString name="dvCHA">
          118 callgsubr
          -150 140 -72 200 240 callgsubr
          106 -50 71 -78 26 vhcurveto
          81 188 131 -858 vlineto
          420 -586 -81 callgsubr
          endchar
        </CharString>
        <CharString name="dvCH_R">
          73 callgsubr
          52 callsubr
        </CharString>
        <CharString name="dvCH_RA">
          73 callgsubr
          106 -50 71 -78 26 vhcurveto
          81 188 131 -858 vlineto
          420 -586 -81 callgsubr
          endchar
        </CharString>
        <CharString name="dvCH_R_YA">
          0 callgsubr
          -441 -318 rmoveto
          159 hlineto
          -117 143 83 23 61 44 38 60 rlinecurve
          -53 47 69 -30 89 hhcurveto
          77 57 27 42 37 hvcurveto
          -151 158 -13 callsubr
          -1378 -131 94 -71 vlineto
          56 callsubr
          -116 83 -69 130 -26 vhcurveto
          -111 -136 rlineto
          158 hlineto
          92 119 rlineto
          endchar
        </CharString>
        <CharString name="dvCH_YA">
          0 callgsubr
          414 202 callgsubr
          -1378 -131 94 -71 vlineto
          56 callsubr
          -150 140 -72 200 157 114 54 91 57 vhcurveto
          -53 47 69 -30 89 hhcurveto
          77 57 27 42 37 hvcurveto
          -151 146 callgsubr
          vlineto
          endchar
        </CharString>
        <CharString name="dvC_CA">
          488 384 213 rmoveto
          -56 -45 30 58 290 callsubr
          hvcurveto
          170 hlineto
          -24 -22 -16 -29 -6 -33 rrcurveto
          -54 -20 -39 -38 -60 hhcurveto
          750 202 callgsubr
          -1151 -131 896 -241 vlineto
          90 callgsubr
          -733 -123 134 hlineto
          -32 -29 -17 -40 -48 vvcurveto
          -127 91 -64 126 80 57 32 53 40 vhcurveto
          -53 36 64 -30 74 hhcurveto
          74 63 27 50 38 hvcurveto
          -160 322 callgsubr
        </CharString>
        <CharString name="dvC_CHA">
          628 838 154 -29 callgsubr
          rrcurveto
          -81 50 115 -40 148 hhcurveto
          240 callgsubr
          hvcurveto
          endchar
        </CharString>
        <CharString name="dvC_CH_VA">
          628 836 -179 rmoveto
          -60 -40 40 59 56 38 43 68 1 hvcurveto
          0 vlineto
          30 33 3 4 30 hvcurveto
          -110 vlineto
          -50 -35 -46 -64 vhcurveto
          2 333 -29 callgsubr
          27 -44 46 -32 59 -20 rrcurveto
          -43 -35 -24 -53 -61 vvcurveto
          -108 77 -88 130 60 48 22 40 31 vhcurveto
          -114 140 427 vlineto
          91 52 50 87 111 vvcurveto
          endchar
        </CharString>
        <CharString name="dvC_MA">
          669 1059 464 11 callgsubr
          -348 -415 -96 callgsubr
          604 415 rmoveto
          131 -1332 -131 801 -145 -64 vlineto
          -108 -90 -48 -102 -22 hvcurveto
          0 vlineto
          -60 -13 -39 -41 -67 hhcurveto
          -55 -43 30 186 callsubr
          95 -67 129 72 57 23 42 40 vhcurveto
          -54 37 65 -31 83 46 callsubr
          vlineto
          endchar
        </CharString>
        <CharString name="dvC_NA">
          657 724 202 -103 callgsubr
          564 407 rmoveto
          131 -1305 -131 1049 202 callsubr
          -123 -104 -63 -130 -10 hvcurveto
          -14 -52 -38 -36 -61 -1 rrcurveto
          -56 -46 29 186 callsubr
          102 -66 131 71 58 26 45 40 vhcurveto
          -54 42 69 -30 73 13 callsubr
          hlineto
          endchar
        </CharString>
        <CharString name="dvC_R">
          -188 4 callgsubr
          668 131 -668 hlineto
          68 -351 rmoveto
          134 hlineto
          -32 -29 -17 -40 -48 vvcurveto
          -122 91 -63 129 -6 vhcurveto
          -116 -127 rlineto
          169 hlineto
          161 197 54 50 28 75 -1 92 rlinecurve
          178 callsubr
          endchar
        </CharString>
        <CharString name="dvC_RA">
          123 4 callgsubr
          532 -241 hlineto
          -92 -46 -62 -81 -1 vhcurveto
          -58 -1 -47 21 callsubr
          -99 67 -64 91 -16 vhcurveto
          -126 -139 rlineto
          169 hlineto
          153 184 9 8 8 9 8 9 rlinecurve
          -164 -77 callgsubr
          -787 vlineto
          endchar
        </CharString>
        <CharString name="dvC_YA">
          587 820 213 17 callgsubr
          -1251 -131 694 305 callsubr
          -13 -1 -14 -1 -13 rrcurveto
          0 vlineto
          -2 -116 -50 -54 -77 -1 rrcurveto
          -57 -1 -46 21 callsubr
          -127 97 -64 138 87 69 33 63 43 vhcurveto
          -60 46 73 -35 97 260 callgsubr
          146 callgsubr
          vlineto
          endchar
        </CharString>
        <CharString name="dvCandrabindu">
          -630 -168 811 5 callgsubr
        </CharString>
        <CharString name="dvD">
          -19 521 -314 -48 callgsubr
          -409 700 -11 callgsubr
          endchar
        </CharString>
        <CharString name="dvDA">
          -18 -17 609 -11 callgsubr
          endchar
        </CharString>
        <CharString name="dvDA_mvR">
          -29 315 -17 rmoveto
          158 101 74 149 1 hvcurveto
          -132 hlineto
          -66 -43 -40 -74 -58 -34 22 38 36 28 19 48 vhcurveto
          42 115 -35 hlineto
          -51 -36 14 37 41 39 9 46 hvcurveto
          191 178 120 131 -643 -131 373 -69 -106 hlineto
          -98 -80 -41 -100 -69 54 -46 57 -12 hvcurveto
          -4 vlineto
          -62 -12 -49 -43 -69 vvcurveto
          -110 108 -51 135 vhcurveto
          endchar
        </CharString>
        <CharString name="dvDD">
          -64 353 -301 -48 callgsubr
          -241 687 -30 callgsubr
          endchar
        </CharString>
        <CharString name="dvDDA">
          -64 -17 609 -30 callgsubr
          endchar
        </CharString>
        <CharString name="dvDDH">
          25 400 -289 -48 callgsubr
          -288 675 rmoveto
          -61 callgsubr
          116 176 162 131 -689 hlineto
          endchar
        </CharString>
        <CharString name="dvDDHA">
          25 4 callgsubr
          -61 callgsubr
          116 176 162 131 -689 hlineto
          endchar
        </CharString>
        <CharString name="dvDDH_DDHA">
          46 4 callgsubr
          379 -61 -29 hlineto
          -152 -113 -84 -152 -92 44 -68 70 -41 hvcurveto
          -70 -37 -44 -66 -92 vvcurveto
          -157 132 -85 169 170 89 68 112 88 -66 62 -109 -96 -64 -44 -80 -10 2 -13 3 -12 vhcurveto
          102 hlineto
          -2 5 -1 5 5 vvcurveto
          24 20 18 31 36 18 -21 -29 -49 -54 -26 -76 -111 -51 59 80 97 77 50 95 146 100 67 112 89 -61 62 -113 -96 -65 225 callgsubr
          33 35 18 -21 -30 -49 -54 -26 -76 315 callsubr
          117 158 197 131 -710 hlineto
          endchar
        </CharString>
        <CharString name="dvDDH_R">
          25 407 -386 -48 callgsubr
          -295 772 -2 callsubr
        </CharString>
        <CharString name="dvDDH_RA">
          25 -17 609 -2 callsubr
        </CharString>
        <CharString name="dvDDH_VA">
          28 4 callgsubr
          376 -61 -26 hlineto
          -152 -113 -84 -152 -95 42 -70 67 -40 hvcurveto
          -55 -33 -33 -57 -70 vvcurveto
          -110 75 -83 128 60 47 23 39 30 vhcurveto
          -142 132 443 vlineto
          39 30 22 43 53 vvcurveto
          88 -60 62 -109 -96 -64 225 callgsubr
          31 31 19 -21 -29 -49 -52 -27 -73 315 callsubr
          115 158 181 131 -692 hlineto
          348 -866 rmoveto
          -56 -39 37 54 69 55 29 76 22 21 1 3 19 hvcurveto
          -94 vlineto
          -50 -33 -49 -65 vhcurveto
          endchar
        </CharString>
        <CharString name="dvDDH_YA">
          692 1088 284 callgsubr
          -1356 -131 -61 callgsubr
          355 hlineto
          38 45 -11 -50 -38 -35 -17 -49 2 hvcurveto
          -45 -23 hlineto
          -168 103 -73 122 77 51 28 43 32 vhcurveto
          -127 47 rmoveto
          -69 -32 38 45 -7 hvcurveto
          77 9 54 41 77 vvcurveto
          101 -71 52 -148 vhcurveto
          -255 73 578 -293 hlineto
          -93 -56 -50 -71 vhcurveto
          endchar
        </CharString>
        <CharString name="dvDDHxA">
          25 4 callgsubr
          -61 callgsubr
          116 176 162 131 -689 hlineto
          372 -986 rmoveto
          -101 callgsubr
          endchar
        </CharString>
        <CharString name="dvDD_DDA">
          -52 4 callgsubr
          345 -66 -74 hlineto
          -101 -78 -43 -95 -104 86 -35 128 49 52 -5 -49 -33 -27 -22 -53 -60 -38 29 38 -3 hvcurveto
          -149 hlineto
          -52 30 -40 46 -24 vhcurveto
          -38 -20 -23 -32 -46 vvcurveto
          -100 87 -31 128 50 50 -5 -51 -35 -27 -20 -53 -60 -39 26 42 -2 vhcurveto
          -149 hlineto
          -112 5 107 -58 140 hhcurveto
          143 82 57 101 120 -91 32 -139 -50 -37 3 35 28 25 12 53 152 87 57 100 272 callgsubr
          hvcurveto
          183 168 121 131 -612 hlineto
          endchar
        </CharString>
        <CharString name="dvDD_DDHA">
          -43 -12 4 callsubr
          339 -66 -75 hlineto
          -99 -79 -43 -95 -104 86 -35 128 49 51 -5 -49 -33 -27 -22 -52 -60 -38 29 38 -3 hvcurveto
          -150 hlineto
          -55 35 -42 51 -24 vhcurveto
          -70 -33 -45 -65 -94 vvcurveto
          -158 130 -81 163 161 85 69 111 88 -65 62 -107 -95 -62 -44 -79 -10 2 -13 2 -13 vhcurveto
          102 hlineto
          -2 5 -1 5 5 vvcurveto
          25 19 17 29 35 17 -21 -29 -49 -52 -26 -72 -108 -49 56 76 92 70 46 90 8 vhcurveto
          142 14 73 49 95 vvcurveto
          272 callgsubr
          vhcurveto
          184 168 115 131 -601 hlineto
          endchar
        </CharString>
        <CharString name="dvDD_R">
          -64 351 -398 -48 callgsubr
          -239 784 8 callgsubr
        </CharString>
        <CharString name="dvDD_RA">
          -64 -17 609 8 callgsubr
        </CharString>
        <CharString name="dvDD_VA">
          -41 283 -150 rmoveto
          -50 -40 34 55 66 45 34 73 22 21 1 3 19 hvcurveto
          -112 vlineto
          -41 -32 -40 -58 vhcurveto
          -300 759 rmoveto
          344 -66 -75 hlineto
          -99 -79 -43 -95 -129 123 -17 80 61 50 -6 -53 -36 -27 -21 -52 -60 -38 28 37 -3 hvcurveto
          -150 hlineto
          -53 34 -48 55 -30 vhcurveto
          -55 -29 -33 -56 -69 vvcurveto
          -108 75 -75 111 53 45 17 32 30 vhcurveto
          -115 132 432 vlineto
          20 24 11 32 37 vvcurveto
          110 -81 40 -120 6 vhcurveto
          -62 3 -46 -4 43 vvcurveto
          35 33 9 30 vhcurveto
          184 168 132 131 -623 hlineto
          endchar
        </CharString>
        <CharString name="dvDD_YA">
          579 974 hmoveto
          155 -13 callsubr
          -1243 -131 336 -74 -71 72 callsubr
          351 hlineto
          34 46 -10 -47 -38 -34 -14 -46 hvcurveto
          -49 hlineto
          -1 -8 0 -8 -7 vvcurveto
          -167 104 -71 122 77 50 28 44 32 vhcurveto
          -127 46 rmoveto
          -68 -33 37 43 -7 hvcurveto
          85 11 46 48 67 vvcurveto
          98 -72 54 -149 vhcurveto
          -178 78 503 -287 hlineto
          -97 -55 -52 -72 vhcurveto
          endchar
        </CharString>
        <CharString name="dvDDxA">
          -64 -17 609 -30 callgsubr
          323 -999 rmoveto
          -101 callgsubr
          endchar
        </CharString>
        <CharString name="dvDH">
          -203 331 76 rmoveto
          190 121 101 151 hvcurveto
          27 callgsubr
        </CharString>
        <CharString name="dvDHA">
          102 297 78 rmoveto
          94 71 32 56 42 hvcurveto
          -166 28 callgsubr
          -120 103 -61 123 vhcurveto
          endchar
        </CharString>
        <CharString name="dvDH_MA">
          670 1318 4 callsubr
          131 -795 -131 263 -145 -63 vlineto
          -111 -92 -51 -107 -19 hvcurveto
          -2 -11 rlineto
          -53 -13 -49 -36 -91 110 callsubr
          -107 -80 -67 -109 29 callgsubr
          106 -57 140 95 75 22 42 50 vhcurveto
          -50 37 64 -29 79 hhcurveto
          141 139 callsubr
          vlineto
          -505 -415 rmoveto
          -40 -30 25 45 47 34 25 286 callgsubr
          -48 vhcurveto
          347 270 11 callgsubr
          endchar
        </CharString>
        <CharString name="dvDH_NA">
          641 1292 4 callsubr
          131 -769 -131 514 -113 -298 vlineto
          -119 -102 -60 -123 -14 hvcurveto
          -70 -14 -53 -37 -90 44 callsubr
          97 74 32 61 43 vhcurveto
          -64 40 74 -36 81 hhcurveto
          259 callsubr
          -16 27 hvcurveto
          128 -365 146 callgsubr
          hlineto
          -466 -407 220 callsubr
        </CharString>
        <CharString name="dvDH_N_YA">
          1093 1740 4 callsubr
          131 -1232 -131 676 -45 vlineto
          -68 -36 -36 -113 vhcurveto
          -300 hlineto
          -114 -98 -55 -112 -21 hvcurveto
          -57 -21 -48 -30 -86 44 callsubr
          89 68 25 49 44 vhcurveto
          -75 37 79 -42 88 hhcurveto
          113 96 66 127 185 callgsubr
          hvcurveto
          121 hlineto
          -153 21 94 -95 150 57 callgsubr
          146 callgsubr
          vlineto
          -917 -444 rmoveto
          -51 -35 34 48 48 36 35 50 48 35 -35 -47 -49 -35 -34 -48 hvcurveto
          601 48 rmoveto
          -86 -52 56 78 -12 hvcurveto
          109 19 53 73 96 -39 callsubr
          -59 -68 -99 vhcurveto
          endchar
        </CharString>
        <CharString name="dvDH_R">
          -203 331 76 rmoveto
          7 6 0 7 hhcurveto
          -134 -147 rlineto
          169 hlineto
          186 229 rlineto
          45 43 25 58 69 vvcurveto
          27 callgsubr
        </CharString>
        <CharString name="dvDH_RA">
          102 494 155 rmoveto
          -1 hlineto
          4 4 4 4 3 5 rrcurveto
          -168 28 callgsubr
          -111 92 -60 113 -6 vhcurveto
          -139 -153 rlineto
          170 hlineto
          endchar
        </CharString>
        <CharString name="dvDH_VA">
          474 1039 4 callsubr
          97 131 -613 -131 362 -144 hlineto
          -56 callgsubr
          -107 -80 -67 -109 29 callgsubr
          106 -57 141 301 callsubr
          vhcurveto
          117 callgsubr
        </CharString>
        <CharString name="dvDH_YA">
          572 331 76 -59 callgsubr
          -107 -80 -67 -109 29 callgsubr
          113 -57 147 vhcurveto
          475 137 112 callsubr
          endchar
        </CharString>
        <CharString name="dvD_BA">
          167 callsubr
          -114 78 -92 131 62 53 25 49 31 vhcurveto
          12 callsubr
        </CharString>
        <CharString name="dvD_BHA">
          815 521 -314 -48 callgsubr
          -409 700 -11 callgsubr
          881 -546 -71 callgsubr
          124 -336 158 callsubr
          -256 -276 -124 -1 callgsubr
        </CharString>
        <CharString name="dvD_B_RA">
          167 callsubr
          -95 54 -80 94 -24 vhcurveto
          -107 -115 rlineto
          162 hlineto
          129 153 9 9 7 9 7 11 rlinecurve
          12 callsubr
        </CharString>
        <CharString name="dvD_DA">
          -58 371 -88 rmoveto
          153 273 -131 hlineto
          -51 -32 -35 -63 -56 -27 26 37 32 21 22 49 vhcurveto
          57 112 -54 hlineto
          -50 -28 21 32 41 38 13 49 hvcurveto
          154 174 138 131 -610 -131 318 -70 hlineto
          -15 -16 0 -15 hhcurveto
          -107 -93 -35 -106 -68 47 -45 62 -13 hvcurveto
          -4 vlineto
          -65 -14 -42 -49 -67 vvcurveto
          -107 92 -48 89 69 43 24 30 25 vhcurveto
          endchar
        </CharString>
        <CharString name="dvD_DHA">
          290 4 callgsubr
          676 -80 -38 hlineto
          -152 -114 -83 -154 -79 27 -58 41 -37 hvcurveto
          -76 -15 -45 -45 -62 hhcurveto
          233 callsubr
          41 33 26 63 -3 hvcurveto
          129 vlineto
          -174 12 -77 -77 -101 vvcurveto
          -91 60 -44 57 -16 vhcurveto
          54 callgsubr
        </CharString>
        <CharString name="dvD_GA">
          206 callgsubr
          -104 217 callgsubr
          -112 67 -65 117 133 57 86 113 vhcurveto
          76 vlineto
          38 6 31 18 22 24 rrcurveto
          -401 144 160 callsubr
        </CharString>
        <CharString name="dvD_GHA">
          290 301 -3 rmoveto
          233 callsubr
          39 31 25 52 22 25 -5 -10 25 hvcurveto
          -8 -24 -4 -27 -29 vvcurveto
          -79 27 -58 41 -37 vhcurveto
          -76 -15 -45 -45 -62 hhcurveto
          -318 612 rmoveto
          676 -80 -38 hlineto
          -74 -64 -19 -38 -47 hvcurveto
          28 -48 -61 18 -57 hhcurveto
          -147 -66 -74 -94 -91 60 -44 57 -16 hvcurveto
          54 callgsubr
        </CharString>
        <CharString name="dvD_G_RA">
          206 callgsubr
          -48 217 callgsubr
          -113 67 -64 117 133 57 85 114 vhcurveto
          20 vlineto
          38 6 31 18 22 24 rrcurveto
          -155 vlineto
          -307 -304 rlineto
          153 hlineto
          162 172 rlineto
          -114 136 160 callsubr
        </CharString>
        <CharString name="dvD_MA">
          237 283 -175 rmoveto
          -41 -28 27 37 50 40 19 41 hvcurveto
          54 -47 hlineto
          -53 -22 -33 -44 vhcurveto
          209 261 rmoveto
          1 193 rlineto
          -206 hlineto
          -44 -30 21 36 40 30 20 43 hvcurveto
          185 213 153 -523 hlineto
          -641 523 rmoveto
          335 -80 -50 hlineto
          -120 -90 -52 -138 -122 95 -63 118 hvcurveto
          79 -68 -44 hlineto
          -123 -106 -47 -145 -123 81 -75 127 140 68 87 142 hvcurveto
          33 131 -292 157 943 103 131 -901 vlineto
          endchar
        </CharString>
        <CharString name="dvD_NA">
          779 521 -314 -48 callgsubr
          469 293 -103 callgsubr
          -313 -235 rmoveto
          314 -146 vlineto
          -59 -41 -33 -50 -60 -37 39 60 68 49 39 73 vhcurveto
          178 214 655 222 callgsubr
          hlineto
          -95 callgsubr
          126 -365 120 callsubr
          -1442 -131 293 callsubr
          62 callsubr
          hvcurveto
          -147 vlineto
          endchar
        </CharString>
        <CharString name="dvD_R">
          -19 522 -314 -48 callgsubr
          -410 700 rmoveto
          293 callsubr
          -120 65 -69 84 -23 hvcurveto
          -139 -154 rlineto
          168 hlineto
          156 184 -6 callsubr
          -645 hlineto
          endchar
        </CharString>
        <CharString name="dvD_RA">
          -19 4 callgsubr
          293 callsubr
          -120 65 -69 84 -23 hvcurveto
          -139 -154 rlineto
          168 hlineto
          156 184 -6 callsubr
          -645 hlineto
          endchar
        </CharString>
        <CharString name="dvD_VA">
          -19 4 callgsubr
          377 -80 -40 hlineto
          -152 -106 -74 -136 -79 33 -54 48 -31 hvcurveto
          218 callsubr
          144 177 callsubr
          -645 hlineto
          315 -825 168 callgsubr
          endchar
        </CharString>
        <CharString name="dvD_YA">
          82 311 147 rmoveto
          -60 -35 22 40 38 30 18 44 hvcurveto
          57 118 -56 hlineto
          -44 -31 18 34 38 36 15 39 hvcurveto
          64 121 122 -294 hlineto
          -121 -77 -47 -89 vhcurveto
          -320 462 rmoveto
          214 -65 hlineto
          -5 -5 0 -5 hhcurveto
          -58 -76 -26 -84 -66 50 -34 56 -10 hvcurveto
          -5 vlineto
          -54 -13 -50 -37 -76 vvcurveto
          -104 93 -58 123 97 68 31 57 38 vhcurveto
          -119 154 268 callsubr
          -739 vlineto
          endchar
        </CharString>
        <CharString name="dvE">
          23 4 callgsubr
          211 callsubr
          145 96 82 144 vhcurveto
          40 callsubr
          -687 vlineto
          endchar
        </CharString>
        <CharString name="dvEcandra">
          23 4 callgsubr
          211 callsubr
          145 96 82 144 vhcurveto
          40 callsubr
          -687 vlineto
          344 79 -10 callsubr
        </CharString>
        <CharString name="dvEight">
          11 callsubr
        </CharString>
        <CharString name="dvEyelash">
          -277 449 345 rmoveto
          -61 86 rlineto
          -10 -21 -26 -10 -40 hhcurveto
          -60 -58 27 77 -4 hvcurveto
          -150 hlineto
          -160 6 121 -57 123 hhcurveto
          66 63 20 27 41 hvcurveto
          -466 264 rmoveto
          459 131 -459 hlineto
          endchar
        </CharString>
        <CharString name="dvEyelash_HA">
          186 773 77 -86 callsubr
          -850 -131 572 175 callgsubr
          -5 0 -5 1 -4 hvcurveto
          -1 -8 -8 -1 -9 hhcurveto
          -55 -46 31 62 hvcurveto
          -149 hlineto
          -143 3 109 -73 111 hhcurveto
          57 34 13 13 24 hvcurveto
          1 1 -1 -1 1 hvcurveto
          81 callgsubr
        </CharString>
        <CharString name="dvEyelash_YA">
          363 597 213 rmoveto
          -75 callgsubr
          316 -213 -8 callgsubr
          -1028 -131 471 -45 vlineto
          -83 -31 -52 -101 -5 vhcurveto
          1 vlineto
          -58 -2 -76 27 77 vvcurveto
          -149 hlineto
          5 -158 123 -61 129 -4 rrcurveto
          -136 21 93 -86 153 221 callgsubr
        </CharString>
        <CharString name="dvFive">
          54 callsubr
        </CharString>
        <CharString name="dvFour">
          122 callgsubr
        </CharString>
        <CharString name="dvG">
          -84 4 callgsubr
          276 callgsubr
          hlineto
          -104 callsubr
          112 131 -580 vlineto
          endchar
        </CharString>
        <CharString name="dvGA">
          185 577 108 callsubr
          -849 -131 276 callgsubr
          hlineto
          -104 callsubr
          126 vlineto
          endchar
        </CharString>
        <CharString name="dvGH">
          197 callgsubr
          -121 97 -62 157 175 99 119 143 vhcurveto
          137 callsubr
        </CharString>
        <CharString name="dvGHA">
          69 320 98 callgsubr
          32 50 hvcurveto
          40 247 callsubr
          -337 387 rmoveto
          95 -47 hlineto
          168 callsubr
          158 -13 callsubr
          -733 vlineto
          endchar
        </CharString>
        <CharString name="dvGH_MA">
          613 1004 464 11 callgsubr
          -348 -415 -96 callgsubr
          -341 28 316 callgsubr
          55 126 -42 262 callsubr
          494 -145 -64 vlineto
          -106 -90 -47 -99 -23 hvcurveto
          -2 -6 rlineto
          -71 -24 -47 -19 -58 hhcurveto
          945 387 rmoveto
          131 -1277 129 callsubr
          87 -62 132 72 66 20 45 43 vhcurveto
          -61 35 69 -37 89 46 callsubr
          vlineto
          endchar
        </CharString>
        <CharString name="dvGH_NA">
          586 670 202 -103 callgsubr
          -355 20 316 callgsubr
          50 126 -37 262 callsubr
          743 202 callsubr
          -112 -97 -53 -108 -24 hvcurveto
          -3 -10 rlineto
          -81 -26 -43 -22 -61 hhcurveto
          919 387 rmoveto
          131 -1251 129 callsubr
          86 -62 129 77 72 22 54 43 vhcurveto
          -65 40 74 -36 81 13 callsubr
          hlineto
          endchar
        </CharString>
        <CharString name="dvGH_R">
          197 callgsubr
          -116 90 -62 146 -5 vhcurveto
          -130 -143 rlineto
          168 hlineto
          177 215 rlineto
          50 48 27 68 74 vvcurveto
          137 callsubr
        </CharString>
        <CharString name="dvGH_RA">
          69 320 98 callgsubr
          36 50 hvcurveto
          36 247 callsubr
          -337 387 rmoveto
          95 -47 hlineto
          31 callsubr
          -105 79 -58 103 -10 vhcurveto
          -140 -153 rlineto
          170 hlineto
          183 221 rlineto
          -172 158 -13 callsubr
          -733 vlineto
          endchar
        </CharString>
        <CharString name="dvGH_YA">
          532 320 98 callgsubr
          32 50 hvcurveto
          40 387 254 callgsubr
          -7 0 -7 1 -7 vhcurveto
          -69 -6 -47 -52 -88 hhcurveto
          445 -9 17 callgsubr
          -1196 129 callsubr
          97 -62 157 86 68 29 47 47 vhcurveto
          -56 46 71 -32 93 260 callgsubr
          146 callgsubr
          vlineto
          endchar
        </CharString>
        <CharString name="dvG_BA">
          556 954 hmoveto
          151 -97 callgsubr
          -1220 -131 276 callgsubr
          hlineto
          -104 callsubr
          503 -129 vlineto
          163 callsubr
          -139 -103 -96 -141 -145 259 callgsubr
          hvcurveto
          -127 45 rmoveto
          -75 -64 50 -15 callgsubr
          215 -161 rlineto
          -18 -22 -29 -10 -36 hhcurveto
          269 vmoveto
          -43 callsubr
          endchar
        </CharString>
        <CharString name="dvG_BHA">
          718 768 194 rmoveto
          -41 184 callsubr
          -47 vhcurveto
          2 201 callsubr
          74 87 141 hvcurveto
          47 123 -336 144 callgsubr
          100 131 -257 -276 -123 47 vlineto
          133 -52 105 -156 312 callgsubr
          -21 vhcurveto
          -723 -131 276 callgsubr
          hlineto
          -104 callsubr
          306 vlineto
          4 8 10 2 8 hhcurveto
          40 16 -31 -44 hvcurveto
          -76 -63 276 callsubr
          -64 -136 212 callsubr
          hvcurveto
          endchar
        </CharString>
        <CharString name="dvG_BH_YA">
          1147 767 -29 callsubr
          91 vlineto
          -155 10 97 -99 163 -2 callgsubr
          -140 198 callgsubr
          241 callsubr
          -722 -131 276 callgsubr
          hlineto
          -104 callsubr
          127 vlineto
          155 callgsubr
          -63 276 callsubr
          -64 -136 212 callsubr
          hvcurveto
          611 152 14 callsubr
          endchar
        </CharString>
        <CharString name="dvG_DA">
          479 1046 -33 rmoveto
          -75 callsubr
          hlineto
          1 131 rlineto
          -1144 -131 276 callgsubr
          hlineto
          -104 callsubr
          404 -80 -38 vlineto
          -153 -113 -83 -154 62 callsubr
          hvcurveto
          -147 vlineto
          endchar
        </CharString>
        <CharString name="dvG_DHA">
          592 780 78 rmoveto
          94 71 32 56 42 hvcurveto
          -166 59 callgsubr
          -64 -42 23 47 45 38 23 61 vhcurveto
          -94 callgsubr
          214 callsubr
          vhcurveto
          -685 -131 276 callgsubr
          hlineto
          -104 callsubr
          98 vlineto
          -2 -11 -1 -12 -13 vvcurveto
          -19 callsubr
          -120 103 -61 123 vhcurveto
          endchar
        </CharString>
        <CharString name="dvG_DH_VA">
          973 1522 hmoveto
          -13 callsubr
          -613 -131 362 -144 vlineto
          -56 callgsubr
          214 callsubr
          vhcurveto
          -685 -131 276 callgsubr
          hlineto
          -104 callsubr
          98 vlineto
          -2 -11 -1 -12 -13 vvcurveto
          29 callgsubr
          106 -57 141 301 callsubr
          vhcurveto
          -70 35 68 -45 93 hhcurveto
          68 54 26 46 34 hvcurveto
          -134 vlineto
          -112 41 callgsubr
          hvcurveto
          -1 vlineto
          -55 -38 -56 -74 vhcurveto
          endchar
        </CharString>
        <CharString name="dvG_DH_YA">
          1056 1289 213 112 callsubr
          -475 -137 -59 callgsubr
          214 callsubr
          vhcurveto
          -685 -131 276 callgsubr
          hlineto
          -104 callsubr
          98 vlineto
          -2 -11 -1 -12 -13 vvcurveto
          77 callgsubr
          endchar
        </CharString>
        <CharString name="dvG_GA">
          685 1078 108 callsubr
          -1350 -131 276 callgsubr
          hlineto
          -104 callsubr
          343 -232 vlineto
          -104 callsubr
          126 vlineto
          endchar
        </CharString>
        <CharString name="dvG_GHA">
          560 812 98 callgsubr
          32 50 hvcurveto
          40 247 callsubr
          299 -222 rmoveto
          -13 callsubr
          -1225 -131 276 callgsubr
          vlineto
          -104 callsubr
          119 -47 vlineto
          168 callsubr
          vlineto
          endchar
        </CharString>
        <CharString name="dvG_JA">
          729 1278 109 callgsubr
          -1393 -131 276 callgsubr
          vlineto
          -104 callsubr
          670 -121 -269 -160 vlineto
          -82 callgsubr
          115 -354 vlineto
          endchar
        </CharString>
        <CharString name="dvG_LA">
          781 1100 30 rmoveto
          -64 callgsubr
          -1446 -131 276 callgsubr
          vlineto
          -104 callsubr
          630 -74 callgsubr
          endchar
        </CharString>
        <CharString name="dvG_MA">
          720 1111 464 11 callgsubr
          -348 -415 -96 callgsubr
          506 -194 -8 callgsubr
          -1384 -131 276 callgsubr
          vlineto
          -104 callsubr
          385 -145 -64 vlineto
          -82 callsubr
          129 -336 vlineto
          endchar
        </CharString>
        <CharString name="dvG_NA">
          693 777 202 -103 callgsubr
          466 -202 -8 callgsubr
          -1358 -131 276 callgsubr
          vlineto
          -104 callsubr
          634 -113 -297 vlineto
          -95 callgsubr
          126 -365 hlineto
          endchar
        </CharString>
        <CharString name="dvG_NNA">
          754 792 277 rmoveto
          -60 callsubr
          511 -277 rmoveto
          268 callsubr
          -1419 -131 276 callgsubr
          vlineto
          -104 callsubr
          119 37 callgsubr
          134 -609 vlineto
          endchar
        </CharString>
        <CharString name="dvG_N_YA">
          1144 777 165 rmoveto
          -33 callgsubr
          -1810 -131 276 callgsubr
          vlineto
          -104 callsubr
          785 241 callgsubr
          -299 hlineto
          -129 -109 -70 -143 77 callsubr
          hvcurveto
          81 callsubr
        </CharString>
        <CharString name="dvG_R">
          58 callsubr
          endchar
        </CharString>
        <CharString name="dvG_RA">
          43 callsubr
          endchar
        </CharString>
        <CharString name="dvG_R_YA">
          623 856 213 rmoveto
          -75 callgsubr
          -34 -131 rmoveto
          87 102 callgsubr
          120 callsubr
          -1287 -131 310 -164 vlineto
          -17 callgsubr
          234 callgsubr
          -16 1 -15 1 -14 vhcurveto
          -356 -339 rlineto
          181 hlineto
          215 216 rlineto
          -72 44 78 -42 107 hhcurveto
          endchar
        </CharString>
        <CharString name="dvG_SA">
          694 931 543 rmoveto
          66 154 -181 -178 132 callgsubr
          62 -356 -91 callgsubr
          372 -300 -77 callgsubr
          -1357 -131 276 callgsubr
          vlineto
          -104 callsubr
          323 -66 vlineto
          61 callgsubr
        </CharString>
        <CharString name="dvG_VA">
          534 818 187 -85 callsubr
          -1199 -131 276 callgsubr
          vlineto
          -104 callsubr
          480 -16 callgsubr
          -140 -84 289 callgsubr
          83 -103 141 53 callgsubr
        </CharString>
        <CharString name="dvG_YA">
          623 856 213 rmoveto
          -75 callgsubr
          316 -213 -8 callgsubr
          -1287 -131 276 callgsubr
          vlineto
          -104 callsubr
          262 -45 vlineto
          88 callgsubr
          vlineto
          endchar
        </CharString>
        <CharString name="dvGx">
          -84 4 callgsubr
          276 callgsubr
          hlineto
          -104 callsubr
          112 131 -580 vlineto
          264 -811 rmoveto
          -101 callgsubr
          endchar
        </CharString>
        <CharString name="dvGxA">
          184 577 108 callsubr
          -849 -131 276 callgsubr
          hlineto
          -104 callsubr
          126 vlineto
          -330 -680 rmoveto
          -101 callgsubr
          endchar
        </CharString>
        <CharString name="dvGx_R">
          58 callsubr
          120 -724 -25 callgsubr
          endchar
        </CharString>
        <CharString name="dvGx_RA">
          43 callsubr
          -477 -167 -25 callgsubr
          endchar
        </CharString>
        <CharString name="dvH">
          -45 542 77 -86 callsubr
          -619 281 callsubr
          -39 42 -26 hvcurveto
          18 callgsubr
          -187 -469 -48 callgsubr
          endchar
        </CharString>
        <CharString name="dvHA">
          -45 542 77 -86 callsubr
          -619 281 callsubr
          -39 42 -26 hvcurveto
          81 callgsubr
        </CharString>
        <CharString name="dvHA_mU">
          -45 342 -361 rmoveto
          144 91 71 120 124 -77 69 -155 -77 -55 34 66 57 39 36 53 58 31 -41 -50 hvcurveto
          148 hlineto
          114 -69 101 -164 200 callsubr
          vhcurveto
          124 callgsubr
          -59 -76 vvcurveto
          -143 104 -83 182 67 31 -27 -44 -41 -37 -26 -62 -67 -51 30 66 2 vhcurveto
          -139 hlineto
          -149 -2 121 -70 134 hhcurveto
          endchar
        </CharString>
        <CharString name="dvHA_mUU">
          -45 323 -344 rmoveto
          112 vlineto
          -1 -10 -9 0 -9 hhcurveto
          -40 -36 21 44 47 42 22 48 94 46 -64 -113 304 callgsubr
          153 -60 153 -206 vhcurveto
          0 vlineto
          -59 1 -40 35 64 vvcurveto
          57 39 36 53 58 33 -41 -54 -2 vhcurveto
          148 hlineto
          115 3 -72 104 -164 hhcurveto
          -15 -15 -1 -2 -14 hvcurveto
          124 callgsubr
          -58 -75 vvcurveto
          -73 30 -56 55 -36 vhcurveto
          -32 -33 -18 -44 -54 vvcurveto
          -120 88 -57 103 13 12 0 1 13 vhcurveto
          endchar
        </CharString>
        <CharString name="dvHA_mvR">
          46 422 -257 rmoveto
          104 vlineto
          -132 -111 69 139 112 66 78 129 81 42 -13 -37 20 hvcurveto
          1 -20 -19 1 -24 hhcurveto
          -110 -61 -55 -83 -103 86 -38 81 33 28 3 10 28 hvcurveto
          92 vlineto
          -6 -17 -26 -5 -27 hhcurveto
          -37 -35 14 37 30 20 23 45 hvcurveto
          167 hlineto
          133 -4 -83 97 -173 234 callsubr
          316 181 87 131 -710 -131 491 -73 -233 239 callsubr
          53 -24 hvcurveto
          -71 -49 -39 -80 -103 vvcurveto
          -199 153 -125 213 7 vhcurveto
          endchar
        </CharString>
        <CharString name="dvH_LA">
          79 377 -245 rmoveto
          100 vlineto
          -101 -100 68 132 114 67 79 131 81 46 -33 -43 21 hvcurveto
          -21 -11 -14 -17 -8 -20 rrcurveto
          -2 hlineto
          34 -16 -30 27 -52 hhcurveto
          -68 -59 -41 -89 -82 50 -59 95 4 6 0 1 9 hvcurveto
          79 vlineto
          -1 -6 -5 0 -4 hhcurveto
          -35 -20 22 37 30 17 21 27 29 16 -25 -33 hvcurveto
          -11 84 11 vlineto
          34 17 24 29 26 18 -21 -31 -36 -21 -22 -35 -4 -4 0 1 -5 vhcurveto
          -79 vlineto
          -1 8 6 0 5 hhcurveto
          95 50 59 82 69 -36 40 -46 15 hvcurveto
          97 -24 -82 70 -147 234 callsubr
          319 181 117 131 -743 -131 493 -73 -235 239 callsubr
          53 -24 hvcurveto
          -71 -49 -39 -80 -103 vvcurveto
          -191 145 -120 176 6 vhcurveto
          endchar
        </CharString>
        <CharString name="dvH_MA">
          705 238 380 rmoveto
          35 29 13 33 vhcurveto
          174 181 347 -145 -64 hlineto
          -98 -84 -40 -84 -30 hvcurveto
          -236 277 callgsubr
          510 -186 85 callsubr
          -791 -721 182 callgsubr
          57 hvcurveto
          229 hlineto
          -95 20 80 -60 114 46 callsubr
          98 131 -1369 -131 341 -70 -80 vlineto
          182 callsubr
        </CharString>
        <CharString name="dvH_NA">
          682 238 380 rmoveto
          35 29 13 33 vhcurveto
          174 181 594 222 callgsubr
          hlineto
          -110 -96 -51 -105 -25 hvcurveto
          -231 277 callgsubr
          522 -178 -103 callgsubr
          -455 -314 182 callgsubr
          59 hvcurveto
          232 hlineto
          -94 29 89 -53 98 13 callsubr
          98 131 -1341 -131 341 -70 -80 hlineto
          182 callsubr
        </CharString>
        <CharString name="dvH_NNA">
          74 378 12 rmoveto
          -24 -14 19 27 hvcurveto
          186 vlineto
          1 12 12 0 14 hhcurveto
          13 13 0 -1 11 hvcurveto
          -186 vlineto
          -27 -14 -19 -23 vhcurveto
          -10 -257 rmoveto
          106 vlineto
          -93 1 -92 61 132 vvcurveto
          75 10 60 58 31 vhcurveto
          -153 vlineto
          -74 42 -58 84 85 41 56 76 vhcurveto
          151 vlineto
          55 -34 8 -63 -82 vvcurveto
          -117 113 117 vlineto
          169 -79 137 -226 -38 -34 -4 -7 -32 vhcurveto
          -23 7 -16 17 24 vvcurveto
          33 27 12 32 vhcurveto
          330 181 103 131 -740 -131 503 -73 -245 239 callsubr
          54 -25 hvcurveto
          -72 -48 -39 -80 -103 282 callgsubr
        </CharString>
        <CharString name="dvH_R">
          -1 callsubr
          -190 -461 -48 callgsubr
          endchar
        </CharString>
        <CharString name="dvH_RA">
          -1 callsubr
          endchar
        </CharString>
        <CharString name="dvH_VA">
          27 444 -5 rmoveto
          -37 -25 24 38 37 26 24 36 hvcurveto
          41 -1 20 -30 -30 vvcurveto
          -1 vlineto
          -30 -20 -31 -41 vhcurveto
          -76 -240 rmoveto
          -2 106 rlineto
          -89 1 -91 61 132 vvcurveto
          111 67 71 111 78 48 -35 -54 12 vhcurveto
          24 -19 -31 17 -40 hhcurveto
          -80 -1 -57 -51 1 -80 rrcurveto
          -74 51 -60 85 44 33 20 30 19 vhcurveto
          -108 113 220 vlineto
          143 -86 118 -189 -27 -27 -3 -6 -26 vhcurveto
          -23 8 -12 17 21 vvcurveto
          33 27 12 32 vhcurveto
          278 181 100 131 -685 -131 450 -73 -192 239 callsubr
          54 -25 hvcurveto
          -67 -48 -44 -79 -104 282 callgsubr
        </CharString>
        <CharString name="dvH_YA">
          267 561 -4 rmoveto
          -55 -29 28 35 -11 hvcurveto
          54 12 46 38 76 vvcurveto
          107 -87 54 -135 -30 -28 -3 -6 -25 vhcurveto
          -21 10 -12 16 20 vvcurveto
          33 28 12 31 vhcurveto
          247 181 138 -472 hlineto
          -75 -28 -66 -83 vhcurveto
          115 -152 rmoveto
          138 765 100 131 -931 -131 415 -73 -160 hlineto
          -100 -59 -48 -74 -54 30 -41 50 -25 hvcurveto
          -67 -47 -39 -76 -97 vvcurveto
          -183 142 -116 175 4 vhcurveto
          108 vlineto
          -94 2 -88 59 121 vvcurveto
          98 59 65 96 52 39 -18 -41 -38 -27 -20 -67 vhcurveto
          -7 hlineto
          -1 -9 0 -10 -9 vvcurveto
          -108 66 -89 133 67 47 24 40 31 vhcurveto
          endchar
        </CharString>
        <CharString name="dvI">
          -52 -21 4 callsubr
          338 -73 -73 hlineto
          45 callgsubr
          118 hlineto
          55 callgsubr
          -621 hlineto
          endchar
        </CharString>
        <CharString name="dvII">
          -52 230 34 rmoveto
          55 callgsubr
          -135 66 164 callsubr
          -64 -340 -131 338 -73 -73 vlineto
          45 callgsubr
          hlineto
          endchar
        </CharString>
        <CharString name="dvII_Anusvara">
          -52 230 34 rmoveto
          55 callgsubr
          -135 74 hlineto
          66 32 42 59 56 30 -37 -39 2 vhcurveto
          126 hlineto
          126 3 -83 71 -130 hhcurveto
          -169 -65 -119 -109 hvcurveto
          -75 -347 -131 338 -73 -73 vlineto
          45 callgsubr
          hlineto
          322 859 3 callgsubr
        </CharString>
        <CharString name="dvJ">
          84 callsubr
          endchar
        </CharString>
        <CharString name="dvJA">
          230 4 callgsubr
          639 301 callgsubr
          hlineto
          -82 callgsubr
          115 -354 -77 callgsubr
          -894 vlineto
          endchar
        </CharString>
        <CharString name="dvJH">
          -69 4 callgsubr
          -50 callgsubr
          184 118 -413 138 callsubr
          223 131 -709 hlineto
          endchar
        </CharString>
        <CharString name="dvJHA">
          239 279 333 rmoveto
          -5 callsubr
          165 -276 hlineto
          -333 vmoveto
          154 -97 callgsubr
          -903 -131 -50 callgsubr
          126 hlineto
          endchar
        </CharString>
        <CharString name="dvJH_MA">
          767 1158 464 11 callgsubr
          -348 -415 -96 callgsubr
          -531 139 rmoveto
          -5 callsubr
          414 -145 -64 hlineto
          -101 -85 -42 -89 -29 hvcurveto
          -372 -300 244 callsubr
          91 hlineto
          -95 20 80 -59 114 46 callsubr
          98 131 -1431 -131 334 -73 -73 vlineto
          35 callgsubr
        </CharString>
        <CharString name="dvJH_NA">
          735 279 333 rmoveto
          -5 callsubr
          658 222 callgsubr
          hlineto
          -113 -97 -53 -110 -23 hvcurveto
          222 -131 -103 callgsubr
          -587 -169 244 callsubr
          94 hlineto
          -93 28 89 -53 98 13 callsubr
          98 131 -1400 -131 334 -73 -73 hlineto
          35 callgsubr
        </CharString>
        <CharString name="dvJH_R">
          -69 4 callgsubr
          -50 callgsubr
          237 hlineto
          -301 -329 rlineto
          157 hlineto
          148 180 rlineto
          267 -470 vlineto
          -5 callsubr
          280 131 -766 hlineto
          endchar
        </CharString>
        <CharString name="dvJH_RA">
          322 279 333 rmoveto
          -5 callsubr
          248 -276 hlineto
          5 -333 rmoveto
          150 -13 callsubr
          -986 -131 -50 callgsubr
          214 -22 hlineto
          -278 -307 rlineto
          157 hlineto
          121 142 rlineto
          endchar
        </CharString>
        <CharString name="dvJH_YA">
          664 279 333 rmoveto
          -5 callsubr
          285 166 callsubr
          -11 0 -10 1 -10 vhcurveto
          304 -120 rmoveto
          -75 callgsubr
          -665 -180 244 callsubr
          116 hlineto
          -84 41 82 -49 116 260 callgsubr
          120 callsubr
          -1328 -131 334 -73 -73 vlineto
          35 callgsubr
        </CharString>
        <CharString name="dvJ_BA">
          608 879 171 rmoveto
          -75 -64 50 -15 callgsubr
          215 -161 rlineto
          -18 -22 -29 -10 -36 hhcurveto
          127 -171 rmoveto
          151 -97 callgsubr
          -1272 -131 1023 -129 hlineto
          163 callsubr
          -62 -55 -19 -34 -42 hvcurveto
          -333 -160 hlineto
          -82 callgsubr
          101 vlineto
          -3 -16 -2 -17 -17 vvcurveto
          -145 259 callgsubr
          vhcurveto
          -127 314 5 callsubr
          endchar
        </CharString>
        <CharString name="dvJ_DA">
          536 1102 -33 rmoveto
          -75 callsubr
          hlineto
          1 131 rlineto
          -1200 -131 928 -80 -38 hlineto
          -63 -56 -14 -27 -44 hvcurveto
          -357 -160 hlineto
          -83 callsubr
          32 107 vlineto
          -4 -20 -3 -21 -23 238 callgsubr
        </CharString>
        <CharString name="dvJ_DDA">
          467 839 -20 rmoveto
          -66 callsubr
          -1130 -131 867 -74 -71 hlineto
          -57 -51 -15 -32 -34 hvcurveto
          -284 -160 hlineto
          -82 callgsubr
          91 vlineto
          -111 17 108 -21 70 hhcurveto
          0 callsubr
        </CharString>
        <CharString name="dvJ_JA">
          796 1345 109 callgsubr
          -1460 -131 1205 301 callgsubr
          vlineto
          -39 callgsubr
          160 -423 -160 vlineto
          -82 callgsubr
          111 -30 172 callgsubr
          115 -354 vlineto
          endchar
        </CharString>
        <CharString name="dvJ_JHA">
          788 828 333 rmoveto
          -5 callsubr
          165 -276 hlineto
          -333 vmoveto
          154 -97 callgsubr
          -1452 -131 883 -73 -73 hlineto
          -57 -52 -15 -33 -34 hvcurveto
          -297 -160 hlineto
          -82 callgsubr
          104 vlineto
          13 -91 81 -35 74 -4 rrcurveto
          -2 23 20 0 20 hhcurveto
          60 27 -25 -39 -32 -22 -26 -48 -51 -31 28 41 -3 hvcurveto
          -141 -253 148 117 hlineto
          29 callsubr
          126 hlineto
          endchar
        </CharString>
        <CharString name="dvJ_J_NYA">
          756 1150 hmoveto
          154 268 callsubr
          -1420 -131 1167 -122 -797 -159 hlineto
          -39 callgsubr
          159 -158 -163 82 callgsubr
          38 319 vlineto
          51 51 -30 -63 -48 -30 -40 -57 -54 -40 34 53 -6 hvcurveto
          -147 -285 154 124 hlineto
          -33 32 50 -22 60 hhcurveto
          101 80 68 108 61 -24 44 -36 29 hvcurveto
          139 hlineto
          endchar
        </CharString>
        <CharString name="dvJ_J_VA">
          1159 1442 187 -85 callsubr
          -1823 -131 1572 -16 callgsubr
          -58 -49 -17 -30 -37 hvcurveto
          -336 -160 hlineto
          -39 callgsubr
          160 -423 -160 vlineto
          -82 callgsubr
          111 -30 172 callgsubr
          106 vlineto
          -3 -16 -1 -17 -18 vvcurveto
          -138 -55 callsubr
        </CharString>
        <CharString name="dvJ_J_YA">
          1250 1483 213 rmoveto
          -93 -52 55 77 -4 hvcurveto
          108 19 54 74 97 6 callgsubr
          316 -213 -8 callgsubr
          -1914 -131 1358 -45 vlineto
          -71 -35 -43 -113 vhcurveto
          -274 -122 hlineto
          -56 -26 -35 -46 -45 -27 35 56 vhcurveto
          122 -422 -122 vlineto
          -39 callgsubr
          122 -158 -126 230 callsubr
          137 85 89 127 4 vhcurveto
          111 hlineto
          -127 3 78 -89 148 hhcurveto
          138 86 90 129 2 hvcurveto
          38 hlineto
          28 23 0 1 20 hvcurveto
          -146 21 94 -92 152 57 callgsubr
          vlineto
          endchar
        </CharString>
        <CharString name="dvJ_KA">
          892 972 hmoveto
          -98 callgsubr
          -1556 -131 989 -148 vlineto
          43 -29 -50 27 -71 hhcurveto
          -54 -45 -15 -28 -34 hvcurveto
          -336 -160 hlineto
          -82 callgsubr
          108 vlineto
          -3 -18 -2 -18 -20 vvcurveto
          -137 79 -97 127 73 53 29 46 30 vhcurveto
          -102 57 -106 callgsubr
          endchar
        </CharString>
        <CharString name="dvJ_MA">
          775 1166 477 rmoveto
          -130 132 130 hlineto
          -348 -403 rmoveto
          -40 -31 26 45 45 36 27 49 hvcurveto
          58 -62 hlineto
          -47 -24 -34 -48 vhcurveto
          506 -206 -8 callgsubr
          -1439 -131 907 -132 -537 -149 vlineto
          -39 callgsubr
          149 -158 -153 82 callgsubr
          28 113 vlineto
          -11 -24 -6 -28 -33 vvcurveto
          -117 88 -77 130 142 73 85 138 vhcurveto
          53 130 -349 vlineto
          endchar
        </CharString>
        <CharString name="dvJ_NA">
          757 830 193 rmoveto
          -50 -34 35 47 49 35 34 49 49 35 -35 -48 -47 -35 -35 -49 hvcurveto
          466 -193 -8 callgsubr
          -1411 -131 1156 -121 -786 -160 vlineto
          -82 callgsubr
          110 vlineto
          -8 -23 -5 -27 -30 vvcurveto
          -135 105 -78 119 114 96 66 127 42 -11 35 -16 27 vhcurveto
          128 -358 hlineto
          endchar
        </CharString>
        <CharString name="dvJ_NY">
          -85 4 callgsubr
          731 131 -731 hlineto
          261 -363 rmoveto
          28 callsubr
          244 125 -470 hlineto
          endchar
        </CharString>
        <CharString name="dvJ_NYA">
          213 607 hmoveto
          155 -97 callgsubr
          -877 -131 624 -107 -363 -125 28 callsubr
          137 hlineto
          endchar
        </CharString>
        <CharString name="dvJ_NY_YA">
          692 925 213 rmoveto
          -88 -45 48 68 -13 hvcurveto
          109 25 50 79 70 callsubr
          316 -213 -8 callgsubr
          -1356 -131 799 -45 vlineto
          -61 -17 -44 -48 -21 vhcurveto
          41 -38 -60 23 -86 hhcurveto
          -289 -125 28 callsubr
          61 hlineto
          47 33 -20 -38 15 hvcurveto
          -145 22 86 -92 157 140 callgsubr
        </CharString>
        <CharString name="dvJ_R">
          66 callgsubr
          endchar
        </CharString>
        <CharString name="dvJ_RA">
          50 callgsubr
          endchar
        </CharString>
        <CharString name="dvJ_TA">
          634 1183 109 callgsubr
          -1298 -131 1043 -117 -673 -164 vlineto
          -39 callgsubr
          164 -158 -168 82 callgsubr
          33 139 vlineto
          -22 -33 -13 -41 -52 vvcurveto
          -153 116 -77 142 vhcurveto
          43 124 -18 hlineto
          -85 -41 46 71 75 54 40 79 hvcurveto
          125 -357 hlineto
          endchar
        </CharString>
        <CharString name="dvJ_TTA">
          569 894 20 rmoveto
          168 107 104 159 hvcurveto
          -84 callsubr
          -1233 -131 906 -76 hlineto
          -69 -1 -58 -16 -45 -28 rrcurveto
          -364 -160 hlineto
          -82 callgsubr
          109 vlineto
          -6 -24 -4 -26 -28 vvcurveto
          -154 119 -102 169 vhcurveto
          endchar
        </CharString>
        <CharString name="dvJ_VA">
          593 876 187 -85 callsubr
          -1257 -131 1006 -16 callgsubr
          -58 -49 -17 -30 -37 hvcurveto
          -336 -160 hlineto
          -82 callgsubr
          106 vlineto
          -3 -16 -1 -17 -18 vvcurveto
          -138 -55 callsubr
        </CharString>
        <CharString name="dvJ_YA">
          684 917 213 rmoveto
          -92 -53 55 77 -4 hvcurveto
          107 18 55 75 97 vvcurveto
          74 145 -236 vlineto
          -92 -59 -68 -99 vhcurveto
          317 -213 rmoveto
          30 callsubr
          endchar
        </CharString>
        <CharString name="dvJx">
          84 callsubr
          299 -879 rmoveto
          -101 callgsubr
          endchar
        </CharString>
        <CharString name="dvJxA">
          230 4 callgsubr
          639 301 callgsubr
          hlineto
          -82 callgsubr
          115 -354 -77 callgsubr
          -894 vlineto
          299 -879 rmoveto
          -101 callgsubr
          endchar
        </CharString>
        <CharString name="dvJx_JxA">
          796 282 90 callsubr
          566 hmoveto
          -101 callgsubr
          497 139 -8 callgsubr
          -1460 -131 1205 301 callgsubr
          vlineto
          -39 callgsubr
          160 -423 -160 vlineto
          -82 callgsubr
          111 -30 172 callgsubr
          115 -354 vlineto
          endchar
        </CharString>
        <CharString name="dvJx_R">
          66 callgsubr
          -129 7 -25 callgsubr
          endchar
        </CharString>
        <CharString name="dvJx_RA">
          50 callgsubr
          163 -782 -25 callgsubr
          endchar
        </CharString>
        <CharString name="dvJx_YA">
          684 1234 hmoveto
          30 callsubr
          -793 90 callsubr
          635 352 rmoveto
          -92 -53 55 77 -4 hvcurveto
          107 18 55 75 97 vvcurveto
          74 145 -236 vlineto
          -92 -59 -68 -99 vhcurveto
          endchar
        </CharString>
        <CharString name="dvK">
          47 callgsubr
          -102 57 -106 callgsubr
          endchar
        </CharString>
        <CharString name="dvKA">
          335 415 hmoveto
          -98 callgsubr
          -999 133 callgsubr
          vlineto
          43 -29 -50 27 -71 hhcurveto
          -133 -79 295 callgsubr
          46 30 hvcurveto
          -102 57 -106 callgsubr
          endchar
        </CharString>
        <CharString name="dvKH">
          40 4 callgsubr
          20 callgsubr
          108 77 53 70 44 vhcurveto
          -4 21 22 -33 callsubr
          570 -424 69 callsubr
          endchar
        </CharString>
        <CharString name="dvKHA">
          330 640 231 17 callsubr
          -35 -120 94 callgsubr
          -254 18 -44 callsubr
          endchar
        </CharString>
        <CharString name="dvKH_KHA">
          997 553 316 69 callsubr
          754 -85 17 callsubr
          83 -231 rmoveto
          156 -97 callgsubr
          -1661 -24 callsubr
          108 77 53 70 44 vhcurveto
          -4 21 22 -3 24 hhcurveto
          44 40 9 17 33 hvcurveto
          -92 43 90 -50 121 hhcurveto
          106 76 52 68 45 hvcurveto
          299 callsubr
          266 callgsubr
          -1039 -29 rmoveto
          -77 callsubr
          509 -93 vlineto
          -57 -17 -36 -34 -19 vhcurveto
          72 -31 -71 45 -96 hhcurveto
          69 callgsubr
          667 hmoveto
          176 callsubr
          -112 -80 -86 -118 -56 17 -49 29 -36 hvcurveto
          -27 -19 -33 -22 -56 hhcurveto
          endchar
        </CharString>
        <CharString name="dvKH_MA">
          900 1290 464 11 callgsubr
          -737 -293 69 callsubr
          390 -122 -27 callgsubr
        </CharString>
        <CharString name="dvKH_NA">
          875 958 202 rmoveto
          -50 -34 33 48 48 34 34 50 49 310 callgsubr
          -33 -49 hvcurveto
          -315 25 -46 callsubr
          -292 -98 rmoveto
          -77 callsubr
          884 202 callsubr
          -64 -54 -17 -34 -40 hvcurveto
          49 -37 -62 27 -78 hhcurveto
          -131 -89 223 callsubr
          57 49 15 30 36 hvcurveto
          -55 39 65 -30 74 hhcurveto
          112 91 66 127 42 -11 34 -15 27 hvcurveto
          127 -365 -77 callgsubr
          -1539 -24 callsubr
          108 77 53 70 44 vhcurveto
          -4 21 22 -3 24 hhcurveto
          endchar
        </CharString>
        <CharString name="dvKH_R">
          40 4 callgsubr
          243 -76 hlineto
          48 callgsubr
          186 229 rlineto
          -1 hlineto
          6 8 6 7 5 8 rrcurveto
          -5 22 23 -33 callsubr
          660 -513 -46 callsubr
          endchar
        </CharString>
        <CharString name="dvKH_RA">
          52 callgsubr
          268 366 17 callsubr
          -289 -102 -44 callsubr
          endchar
        </CharString>
        <CharString name="dvKH_SHA">
          875 351 129 rmoveto
          -77 callsubr
          544 vlineto
          3 11 8 1 9 hhcurveto
          47 26 -32 -46 -89 -85 -27 -88 hvcurveto
          -24 hlineto
          65 -34 -71 37 -91 61 callsubr
          292 98 -18 callsubr
        </CharString>
        <CharString name="dvKH_TA">
          737 643 227 -31 callgsubr
        </CharString>
        <CharString name="dvKH_VA">
          703 1099 hmoveto
          20 callsubr
          -344 40 -46 callsubr
          -292 -98 rmoveto
          -77 callsubr
          716 258 callsubr
          -69 -52 -24 -40 -35 hvcurveto
          32 -37 -53 18 -63 hhcurveto
          -131 -89 -24 callgsubr
          endchar
        </CharString>
        <CharString name="dvKH_YA">
          795 643 227 -41 callgsubr
        </CharString>
        <CharString name="dvKHx">
          40 4 callgsubr
          20 callgsubr
          108 77 53 70 44 vhcurveto
          -4 21 22 -33 callsubr
          341 -983 rmoveto
          -101 callgsubr
          229 559 69 callsubr
          endchar
        </CharString>
        <CharString name="dvKHxA">
          330 605 111 94 callgsubr
          -281 -354 rmoveto
          -101 callgsubr
          316 474 17 callsubr
          -289 -102 -44 callsubr
          endchar
        </CharString>
        <CharString name="dvKHx_MA">
          900 324 -243 rmoveto
          -101 callgsubr
          229 559 69 callsubr
          737 148 11 callgsubr
          -347 -415 -27 callgsubr
        </CharString>
        <CharString name="dvKHx_R">
          40 4 callgsubr
          243 -76 hlineto
          48 callgsubr
          186 229 rlineto
          -1 hlineto
          6 8 6 7 5 8 rrcurveto
          -5 22 23 -33 callsubr
          107 -888 -25 callgsubr
          553 375 -46 callsubr
          endchar
        </CharString>
        <CharString name="dvKHx_RA">
          52 callgsubr
          -282 -13 -25 callgsubr
          550 379 17 callsubr
          -289 -102 -44 callsubr
          endchar
        </CharString>
        <CharString name="dvKHx_SA">
          871 351 -248 rmoveto
          -101 callgsubr
          292 475 -46 callsubr
          -292 -98 rmoveto
          -77 callsubr
          570 -66 vlineto
          -71 -29 -51 -90 -8 vhcurveto
          69 -33 -72 39 -94 61 callsubr
          759 414 rmoveto
          66 153 -181 -178 vlineto
          17 86 callsubr
          61 107 callsubr
          -19 34 43 vhcurveto
          98 371 -300 158 -13 callsubr
          -1535 232 callsubr
          vlineto
          -64 callsubr
          107 77 53 69 44 vhcurveto
          -4 20 20 -2 22 hhcurveto
          41 38 8 15 31 hvcurveto
          -83 27 71 -58 114 hhcurveto
          134 78 77 119 hvcurveto
          endchar
        </CharString>
        <CharString name="dvKHx_SHA">
          875 351 129 rmoveto
          -77 callsubr
          544 vlineto
          3 11 8 1 9 hhcurveto
          47 26 -32 -46 -89 -85 -27 -88 hvcurveto
          -24 hlineto
          65 -34 -71 37 -91 61 callsubr
          -377 vmoveto
          -101 callgsubr
          292 475 -18 callsubr
        </CharString>
        <CharString name="dvKHx_TA">
          737 351 -248 rmoveto
          -101 callgsubr
          292 475 -31 callgsubr
        </CharString>
        <CharString name="dvKHx_VA">
          703 351 -248 rmoveto
          -101 callgsubr
          292 475 -46 callsubr
          456 -227 rmoveto
          20 callsubr
          -636 -58 rmoveto
          -77 callsubr
          716 258 callsubr
          -69 -52 -24 -40 -35 hvcurveto
          32 -37 -53 18 -63 hhcurveto
          -131 -89 -24 callgsubr
          endchar
        </CharString>
        <CharString name="dvKHx_YA">
          795 351 -248 rmoveto
          -101 callgsubr
          292 475 -41 callgsubr
        </CharString>
        <CharString name="dvK_CA">
          705 969 213 rmoveto
          -58 -1 -46 31 60 vvcurveto
          56 40 34 55 vhcurveto
          42 123 -281 hlineto
          -76 -50 -24 -40 -29 hvcurveto
          157 530 -241 vlineto
          -92 -45 -62 -82 -1 vhcurveto
          -656 -17 -106 callgsubr
          253 90 rmoveto
          58 29 49 78 vhcurveto
          108 hlineto
          -41 -29 -23 -46 -56 vvcurveto
          -121 90 -58 115 74 62 27 49 38 vhcurveto
          -159 120 callsubr
          -1369 -96 callsubr
          vlineto
          endchar
        </CharString>
        <CharString name="dvK_DA">
          675 214 callgsubr
          485 -80 -38 hlineto
          -68 -60 -16 -32 -45 hvcurveto
          31 -33 -45 19 -55 199 callsubr
          -253 -267 -106 callgsubr
          929 -229 rmoveto
          314 -145 vlineto
          -59 -42 -33 -49 -60 -38 39 60 68 50 39 72 vhcurveto
          178 214 114 131 -1339 133 callgsubr
          hlineto
          -92 callgsubr
          -56 vhcurveto
          0 vlineto
          -2 0 -2 -2 vvcurveto
          -154 101 -73 113 55 44 17 31 28 vhcurveto
          -146 vlineto
          endchar
        </CharString>
        <CharString name="dvK_JA">
          923 313 196 -106 callgsubr
          661 41 rmoveto
          -46 -25 35 56 hvcurveto
          10 vlineto
          98 -67 95 -129 -66 -47 -27 -41 -28 vhcurveto
          146 749 301 callgsubr
          vlineto
          -56 -26 -35 -46 vhcurveto
          -408 51 rmoveto
          300 callsubr
          -39 -55 vhcurveto
          -6 vlineto
          -104 76 -93 151 140 85 93 131 vhcurveto
          30 116 -354 -77 callgsubr
          -1587 -96 callsubr
          vlineto
          endchar
        </CharString>
        <CharString name="dvK_KA">
          1029 313 196 -106 callgsubr
          797 413 193 callgsubr
          -52 -44 -15 -26 -35 hvcurveto
          26 -31 -41 15 -50 199 callsubr
          146 vlineto
          544 -609 rmoveto
          -98 callgsubr
          -1694 -131 432 -148 vlineto
          -92 callgsubr
          -56 vhcurveto
          1 hlineto
          -137 79 -97 127 73 53 29 46 30 vhcurveto
          -102 57 -106 callgsubr
          endchar
        </CharString>
        <CharString name="dvK_KHA">
          1012 707 523 rmoveto
          -66 -47 -26 -40 -28 hvcurveto
          152 341 -76 vlineto
          -51 -14 -34 -27 -21 vhcurveto
          58 -28 -52 38 -79 hhcurveto
          -394 -327 -106 callgsubr
          1092 -196 rmoveto
          156 -97 callgsubr
          -1676 133 callgsubr
          hlineto
          -92 callgsubr
          -56 vhcurveto
          -38 vlineto
          -165 109 -102 173 161 callsubr
          55 38 19 29 25 hvcurveto
          -84 72 rmoveto
          -48 -38 30 58 54 39 31 47 57 26 -43 -43 1 hvcurveto
          -46 -29 -41 -55 vhcurveto
          -288 -102 rmoveto
          176 callsubr
          -113 -79 -86 -118 -56 17 -48 29 -37 hvcurveto
          -27 -19 -34 -22 -55 hhcurveto
          endchar
        </CharString>
        <CharString name="dvK_LA">
          977 1152 410 rmoveto
          -66 callgsubr
          -56 -53 -16 -34 -41 hvcurveto
          31 -29 -40 18 -49 hhcurveto
          -66 307 callsubr
          711 42 callsubr
          -839 -214 -106 callgsubr
          253 92 rmoveto
          261 callsubr
          -56 vhcurveto
          0 vlineto
          -5 0 -5 -5 vvcurveto
          -146 91 -107 168 159 callgsubr
          vhcurveto
          -88 callsubr
          -64 callgsubr
          -1642 -96 callsubr
          vlineto
          endchar
        </CharString>
        <CharString name="dvK_MA">
          915 155 callsubr
          -394 -327 -22 callgsubr
        </CharString>
        <CharString name="dvK_NA">
          889 214 callgsubr
          714 222 callgsubr
          hlineto
          -50 -47 -11 -21 -39 hvcurveto
          43 -28 -45 24 -67 199 callsubr
          406 -261 -103 callgsubr
          -659 224 callgsubr
          253 92 rmoveto
          323 callsubr
          53 32 -37 -50 4 vhcurveto
          -1 -9 0 -9 -10 1 callgsubr
          120 callsubr
          -1553 47 callsubr
        </CharString>
        <CharString name="dvK_NNA">
          924 214 callgsubr
          173 -95 hlineto
          2 -11 -12 1 -13 hhcurveto
          -64 -46 -24 -38 -27 hvcurveto
          -253 -259 -106 callgsubr
          648 81 rmoveto
          -60 callsubr
          -395 11 rmoveto
          323 callsubr
          42 28 -23 -32 13 vhcurveto
          -111 9 72 -86 139 hhcurveto
          148 73 94 126 hvcurveto
          244 134 -609 158 callsubr
          -1588 -96 callsubr
          vlineto
          endchar
        </CharString>
        <CharString name="dvK_PA">
          702 214 callgsubr
          158 -87 hlineto
          1 -6 -7 0 -7 hhcurveto
          -64 -46 -24 -39 -28 hvcurveto
          -253 -264 -106 callgsubr
          675 96 -72 callsubr
          -422 -4 rmoveto
          59 26 50 63 39 28 -24 -36 10 vhcurveto
          -105 24 71 -72 120 101 callsubr
          -77 callgsubr
          -1367 -96 callsubr
          vlineto
          endchar
        </CharString>
        <CharString name="dvK_PHA">
          195 callsubr
          -253 -264 -106 callgsubr
          675 96 -89 callgsubr
          -422 -4 rmoveto
          323 callsubr
          41 30 -23 -33 11 vhcurveto
          -108 21 70 -73 118 hhcurveto
          62 46 21 35 31 hvcurveto
          -90 callgsubr
          -1684 -96 callsubr
          vlineto
          endchar
        </CharString>
        <CharString name="dvK_P_RA">
          702 214 callgsubr
          158 -87 hlineto
          1 -6 -7 0 -7 hhcurveto
          -64 -46 -24 -39 -28 hvcurveto
          -253 -264 -106 callgsubr
          675 96 -72 callsubr
          107 -292 rmoveto
          -77 callgsubr
          -1367 133 callgsubr
          hlineto
          -73 callsubr
          59 26 50 63 38 27 -22 -33 12 vhcurveto
          19 -89 56 -65 92 -17 -3 callgsubr
        </CharString>
        <CharString name="dvK_R">
          71 285 callsubr
          57 2 27 52 65 hhcurveto
          57 36 -43 -56 hvcurveto
          159 hlineto
          131 -74 102 -128 285 callgsubr
          346 131 -929 133 callgsubr
          vlineto
          43 -29 -50 27 -71 hhcurveto
          -133 -79 -95 -138 -107 59 -82 90 -24 hvcurveto
          -119 -131 rlineto
          -4 callgsubr
        </CharString>
        <CharString name="dvK_RA">
          335 415 hmoveto
          -41 callsubr
          -999 133 callgsubr
          vlineto
          43 -29 -50 27 -71 hhcurveto
          -133 -79 -95 -138 -107 59 -82 90 -24 hvcurveto
          -119 -131 rlineto
          -4 callgsubr
        </CharString>
        <CharString name="dvK_SA">
          883 278 callgsubr
          397 268 callgsubr
          -73 -13 vhcurveto
          60 -27 -52 41 -80 hhcurveto
          -394 -321 -106 callgsubr
          807 347 rmoveto
          66 154 -181 -178 132 callgsubr
          62 -356 -91 callgsubr
          372 -300 -77 callgsubr
          -1546 -131 432 -148 vlineto
          -92 callgsubr
          -50 vhcurveto
          -94 vlineto
          6 callsubr
          vhcurveto
          endchar
        </CharString>
        <CharString name="dvK_SHA">
          906 313 196 -106 callgsubr
          394 327 rmoveto
          -66 -47 -26 -40 -28 hvcurveto
          152 393 vlineto
          3 10 7 1 10 hhcurveto
          47 26 -32 -46 -89 -84 -27 -89 hvcurveto
          -16 hlineto
          62 -28 -52 42 -83 hhcurveto
          280 -530 rmoveto
          135 86 79 135 hvcurveto
          18 -153 -16 vlineto
          181 callgsubr
          -26 -24 -3 -6 -22 hvcurveto
          -935 133 callgsubr
          hlineto
          -92 callgsubr
          -56 vhcurveto
          -71 vlineto
          -143 90 -91 150 vhcurveto
          242 callsubr
          609 98 322 callsubr
        </CharString>
        <CharString name="dvK_SS">
          -71 226 543 -76 callgsubr
          372 113 -222 hlineto
          27 30 19 37 50 -42 callgsubr
          endchar
        </CharString>
        <CharString name="dvK_SSA">
          231 226 543 -76 callgsubr
          311 -343 151 -97 callgsubr
          -249 -284 -161 hlineto
          27 30 19 37 50 -42 callgsubr
          endchar
        </CharString>
        <CharString name="dvK_SS_MA">
          777 821 186 rmoveto
          -40 -31 26 45 45 35 26 286 callgsubr
          -48 vhcurveto
          -595 357 -76 callgsubr
          303 hlineto
          -11 -25 -6 -29 -33 174 callgsubr
          141 74 87 141 vhcurveto
          47 130 -328 -77 callgsubr
          -820 -131 289 -153 -425 vlineto
          27 30 19 37 50 -42 callgsubr
          799 369 rmoveto
          -130 153 130 hlineto
          endchar
        </CharString>
        <CharString name="dvK_SS_M_YA">
          1226 819 178 rmoveto
          -40 -31 26 46 45 36 26 48 311 callsubr
          -23 -36 -48 vhcurveto
          -593 365 -76 callgsubr
          304 hlineto
          -13 -26 -7 -32 -36 174 callgsubr
          141 74 86 142 vhcurveto
          47 119 vlineto
          -149 14 95 -94 159 261 callgsubr
          -154 -77 callgsubr
          -1271 -131 288 -159 -428 vlineto
          31 31 21 39 53 -42 callgsubr
          834 363 rmoveto
          -167 159 280 -54 hlineto
          -67 -33 -38 -80 vhcurveto
          255 -241 rmoveto
          -95 -52 56 76 -2 hvcurveto
          104 14 57 75 101 vvcurveto
          78 147 -240 266 callsubr
          endchar
        </CharString>
        <CharString name="dvK_SS_VA">
          591 226 543 -76 callgsubr
          292 hlineto
          -2 -13 -1 -13 -14 vvcurveto
          -138 84 -103 141 67 54 26 45 34 vhcurveto
          -133 154 -13 callsubr
          -641 -131 390 258 callsubr
          -77 -60 -30 -49 -39 hvcurveto
          -188 hlineto
          27 30 19 37 50 -42 callgsubr
          505 100 249 callsubr
          151 callgsubr
          -74 vhcurveto
          endchar
        </CharString>
</ttFont>
